<?xml version="1.0" encoding="UTF-8" standalone="no"?>
<!-- Created with Inkscape (http://www.inkscape.org/) -->

<svg
   version="1.1"
   id="svg2"
   width="512"
   height="512"
   viewBox="0 0 512 512"
   sodipodi:docname="group.svg"
   inkscape:version="1.2.1 (9c6d41e410, 2022-07-14)"
   xmlns:inkscape="http://www.inkscape.org/namespaces/inkscape"
   xmlns:sodipodi="http://sodipodi.sourceforge.net/DTD/sodipodi-0.dtd"
   xmlns="http://www.w3.org/2000/svg"
   xmlns:svg="http://www.w3.org/2000/svg">
  <defs
     id="defs6" />
  <sodipodi:namedview
     id="namedview4"
     pagecolor="#ffffff"
     bordercolor="#000000"
     borderopacity="0.25"
     inkscape:showpageshadow="2"
     inkscape:pageopacity="0.0"
     inkscape:pagecheckerboard="0"
     inkscape:deskcolor="#d1d1d1"
     showgrid="false"
     inkscape:zoom="0.80898999"
     inkscape:cx="90.235974"
     inkscape:cy="241.65936"
     inkscape:window-width="1240"
     inkscape:window-height="655"
     inkscape:window-x="0"
     inkscape:window-y="0"
     inkscape:window-maximized="1"
     inkscape:current-layer="g8" />
  <g
     inkscape:groupmode="layer"
     inkscape:label="Image"
     id="g8">
    <path
       style="fill:#2c3e50;fill-opacity:1"
       d="M 27.700007,500.67138 C 19.338669,496.55108 17.358943,489.33514 19.412063,470.46253 23.701351,431.0347 40.50307,395.474 67.603809,368.46509 117.76811,318.47076 193.14357,305.50847 257.26805,335.8486 c 9.57638,4.53101 23.71505,13.26754 30.85683,19.06696 l 4.1045,3.33303 3.3955,-3.53639 c 5.83677,-6.07896 18.81267,-15.29739 28.0941,-19.9588 46.49909,-23.35325 99.99772,-15.81171 136.92316,19.30163 22.39488,21.29586 35.31805,48.6768 37.47815,79.40678 0.8252,11.73943 -1.03137,17.13245 -7.22287,20.98126 l -3.87704,2.41007 -68.85172,0.27666 -68.85171,0.27666 0.54994,2.22334 c 1.2348,4.99217 2.74834,24.49765 2.19253,28.25591 -0.87497,5.91635 -3.96742,10.30547 -8.8097,12.50361 -4.1119,1.86659 -8.50546,1.91987 -158.22934,1.91909 C 44.45401,502.30767 30.730739,502.16487 27.700007,500.67138 Z M 319.17183,468.60314 c -0.26583,-0.9625 -0.78543,-4 -1.15465,-6.75 -1.14443,-8.52367 -7.44399,-26.50593 -13.17147,-37.59829 -18.81015,-36.42948 -52.09967,-61.56875 -93.32533,-70.47653 -11.19435,-2.4188 -33.37858,-2.94144 -45.5,-1.07194 -47.13298,7.2694 -85.822125,37.07715 -104.571233,80.5661 -3.968429,9.20485 -8.080756,23.39844 -9.367202,32.33066 l -0.684111,4.75 H 185.52649 c 127.25904,0 134.10391,-0.0896 133.64534,-1.75 z m 145.34855,-45.14466 c 0,-3.15621 -4.04219,-15.23095 -7.2327,-21.60534 -6.20737,-12.40187 -17.68318,-25.6362 -28.7673,-33.17553 -7.24746,-4.92967 -18.32928,-10.13841 -26.70851,-12.5537 -10.55306,-3.04188 -34.11898,-3.2523 -44.79149,-0.39993 -14.02302,3.74783 -31.32031,13.48319 -39.80311,22.40221 l -2.80311,2.94726 2.42125,2.88985 c 4.92849,5.88231 13.94619,20.67964 18.81908,30.88058 l 5.02016,10.50926 h 61.92287 c 60.10865,0 61.92286,-0.0555 61.92286,-1.89466 z m -99.5,-122.51801 c -24.84872,-5.7669 -43.38251,-22.43678 -51.21708,-46.06625 -2.31943,-6.9955 -2.65589,-9.61934 -2.6315,-20.52108 0.0241,-10.7657 0.39351,-13.60995 2.66268,-20.5 3.55562,-10.7962 8.86244,-19.44589 16.80123,-27.38467 7.9206,-7.92061 16.55896,-13.22775 27.38467,-16.82428 6.94902,-2.30862 9.64215,-2.65777 20.5,-2.65777 10.85785,0 13.55098,0.34915 20.5,2.65777 10.82571,3.59653 19.46407,8.90367 27.38467,16.82428 7.92061,7.9206 13.22775,16.55896 16.82428,27.38467 2.30862,6.94902 2.65777,9.64215 2.65777,20.5 0,10.85785 -0.34915,13.55098 -2.65777,20.5 -9.24362,27.82365 -33.03714,45.82171 -62.20895,47.05653 -6.46235,0.27354 -12.12259,-0.0693 -16,-0.9692 z m 23.49098,-32.17729 c 26.80141,-7.95916 34.78384,-41.56818 14.36491,-60.48163 -5.29347,-4.90318 -8.12101,-6.51355 -14.89379,-8.48245 -18.31027,-5.32294 -38.32725,5.89139 -43.8778,24.58213 -7.98535,26.88958 17.50899,52.3697 44.40668,44.38195 z M 169.86195,292.9445 c -18.95133,-3.62641 -33.86066,-11.29313 -47.70307,-24.53001 -20.22366,-19.33899 -29.867121,-45.2295 -27.473026,-73.75886 3.231124,-38.50381 30.300426,-70.13439 68.834526,-80.43339 11.7984,-3.15335 30.69203,-3.17943 43.30135,-0.0598 32.23004,7.97403 56.36903,31.21534 66.37728,63.90882 2.40695,7.86264 2.69462,10.40423 2.7484,24.28184 0.0473,12.19431 -0.34212,16.98961 -1.82578,22.4846 -5.55588,20.57726 -17.68974,38.89526 -33.77238,50.98479 -8.21433,6.17483 -22.60809,13.11308 -32.32887,15.58355 -10.4155,2.64703 -28.54513,3.37796 -38.15843,1.53842 z m 30.06242,-32.5668 c 10.95532,-2.8019 18.96957,-7.38946 27.11166,-15.51939 11.69077,-11.67331 17.43826,-25.39458 17.46957,-41.70595 0.02,-10.40172 -1.44273,-16.79731 -6.01473,-26.29922 -17.02767,-35.3883 -63.5761,-44.36228 -92.82317,-17.8952 -29.51444,26.70903 -24.87577,74.36348 9.22736,94.79546 5.5495,3.32484 15.09185,6.98412 20.62532,7.90936 6.59893,1.10339 17.2603,0.54198 24.40399,-1.28506 z"
       id="path170" />
  </g>
</svg>
