<?xml version="1.0" encoding="UTF-8" standalone="no"?>
<svg
   version="1.0"
   width="338.000000pt"
   height="100.000000pt"
   viewBox="0 0 338.000000 100.000000"
   preserveAspectRatio="xMidYMid meet"
   id="svg444"
   sodipodi:docname="logo.svg"
   inkscape:version="1.2.1 (9c6d41e410, 2022-07-14)"
   xmlns:inkscape="http://www.inkscape.org/namespaces/inkscape"
   xmlns:sodipodi="http://sodipodi.sourceforge.net/DTD/sodipodi-0.dtd"
   xmlns="http://www.w3.org/2000/svg"
   xmlns:svg="http://www.w3.org/2000/svg">
  <defs
     id="defs448" />
  <sodipodi:namedview
     id="namedview446"
     pagecolor="#ffffff"
     bordercolor="#000000"
     borderopacity="0.25"
     inkscape:showpageshadow="2"
     inkscape:pageopacity="0.0"
     inkscape:pagecheckerboard="0"
     inkscape:deskcolor="#d1d1d1"
     inkscape:document-units="pt"
     showgrid="false"
     inkscape:zoom="1.8986869"
     inkscape:cx="434.51082"
     inkscape:cy="83.215406"
     inkscape:window-width="1280"
     inkscape:window-height="720"
     inkscape:window-x="0"
     inkscape:window-y="0"
     inkscape:window-maximized="1"
     inkscape:current-layer="g442" />
  <metadata
     id="metadata370">
Created by potrace 1.16, written by Peter Selinger 2001-2019
</metadata>
  <g
     transform="translate(0.000000,100.000000) scale(0.100000,-0.100000)"
     fill="#000000"
     stroke="none"
     id="g442">
    <path
       d="M830 901 c0 -12 9 -40 20 -61 17 -34 18 -40 5 -40 -8 0 -15 -5 -15 -11 0 -6 -7 -9 -15 -5 -8 3 -15 0 -15 -7 0 -6 -21 12 -46 41 -49 56 -104 93 -104 70 1 -15 60 -96 60 -82 0 6 -5 15 -12 22 -7 7 -8 12 -2 12 17 0 52 -43 70 -85 13 -33 14 -37 1 -27 -18 15 -22 10 -53 -63 -27 -67 -53 -79 -136 -65 -45 8 -72 8 -91 1 -38 -15 -37 -15 -37 19 0 17 -9 39 -21 51 -18 18 -29 21 -71 16 -55 -7 -91 4 -127 36 l-24 22 17 -30 c9 -16 20 -37 25 -45 5 -8 12 -23 15 -33 9 -27 54 -40 103 -29 36 8 45 6 59 -9 10 -11 29 -19 44 -19 25 0 69 -34 58 -45 -3 -3 -13 4 -23 15 -21 23 -104 28 -144 7 -75 -37 -94 -224 -30 -288 22 -22 84 -25 139 -6 27 9 35 18 35 37 3 136 65 241 142 240 10 0 0 -9 -22 -19 -47 -22 -69 -55 -85 -134 -13 -67 -7 -124 22 -185 23 -49 41 -56 135 -50 60 4 69 7 94 37 31 38 49 99 49 168 0 46 -3 52 -55 103 -44 43 -55 61 -54 85 l1 30 8 -28 c5 -15 35 -56 67 -90 42 -45 61 -76 70 -110 7 -26 18 -47 25 -47 7 0 27 -14 44 -31 32 -31 34 -31 98 -24 56 5 69 11 90 36 52 61 58 193 13 261 -21 30 -28 33 -79 36 -48 3 -55 5 -51 21 9 35 -110 244 -171 300 l-26 24 0 -22z m70 -369 c0 -26 -25 -5 -28 24 -2 28 -2 28 13 10 8 -11 15 -26 15 -34z m126 -47 c9 -25 23 -45 30 -45 17 0 17 -5 4 -31 -7 -13 -7 -19 0 -19 19 0 10 -37 -16 -65 -23 -25 -30 -27 -72 -21 -52 7 -72 26 -72 69 0 48 16 67 50 60 28 -5 30 -3 30 23 0 38 10 74 20 74 5 0 16 -20 26 -45z m-621 15 c3 -5 -1 -10 -9 -10 -45 0 -65 -131 -26 -170 15 -15 17 -20 5 -20 -17 0 -41 34 -50 71 -17 68 51 177 80 129z m80 -147 c-3 -18 -10 -35 -15 -38 -6 -4 -6 4 0 20 6 15 11 54 12 88 2 61 2 61 5 12 3 -27 2 -64 -2 -82z m600 -20 c-9 -23 -21 -45 -25 -48 -5 -3 -1 14 10 37 11 24 20 69 22 103 l2 60 3 -55 c3 -34 -2 -70 -12 -97z m63 67 c-3 -45 -1 -75 3 -68 5 7 9 9 9 3 0 -17 -18 -38 -33 -41 -13 -2 -13 2 -1 32 8 18 14 61 14 94 0 33 3 60 6 60 4 0 4 -36 2 -80z m19 43 c-3 -10 -5 -4 -5 12 0 17 2 24 5 18 2 -7 2 -21 0 -30z m-42 -69 c-3 -23 -12 -50 -20 -60 -12 -16 -12 -13 0 21 8 22 15 63 16 90 1 34 3 41 6 21 3 -17 2 -49 -2 -72z m-448 69 c3 -7 -3 -9 -16 -6 -45 12 -79 -109 -51 -182 5 -14 20 -29 32 -34 14 -5 17 -10 10 -15 -19 -11 -53 13 -68 49 -36 86 4 210 65 203 13 -2 26 -8 28 -15z m-212 -50 c-7 -45 -30 -103 -41 -103 -2 0 2 12 9 28 8 15 18 48 21 75 4 26 10 47 13 47 3 0 2 -21 -2 -47z m50 -8 c-3 -26 -8 -45 -11 -43 -2 3 -1 26 2 52 4 25 9 44 12 42 2 -3 1 -26 -3 -51z m652 -17 c-2 -13 -4 -5 -4 17 -1 22 1 32 4 23 2 -10 2 -28 0 -40z m-387 -96 c-5 -22 -19 -51 -30 -64 -19 -22 -19 -21 1 14 11 21 24 66 27 100 6 50 8 55 10 26 2 -20 -2 -55 -8 -76z m-25 12 c-3 -24 -15 -53 -25 -66 l-20 -23 17 34 c9 19 19 57 22 85 2 28 7 43 9 32 2 -10 1 -38 -3 -62z m-252 33 c3 -8 -1 -14 -8 -14 -7 0 -11 6 -8 14 6 16 10 16 16 0z m297 -57 l-11 -25 6 25 c2 14 5 36 6 50 l2 25 4 -25 c2 -14 -1 -37 -7 -50z m26 6 c-3 -18 -13 -41 -21 -52 -13 -17 -13 -14 0 18 8 21 15 50 16 65 0 15 3 22 6 15 3 -7 2 -28 -1 -46z"
       id="path372" />
    <path
       d="M950 395 c0 -8 7 -15 16 -15 14 0 14 3 4 15 -7 8 -14 15 -16 15 -2 0 -4 -7 -4 -15z"
       id="path374" />
    <path
       d="M807 829 c7 -7 15 -10 18 -7 3 3 -2 9 -12 12 -14 6 -15 5 -6 -5z"
       id="path376" />
    <path
       d="M1621 827 c-41 -21 -61 -59 -76 -147 -22 -123 -20 -165 7 -184 42 -30 114 -15 142 29 17 26 46 170 46 229 0 47 -6 58 -37 75 -28 14 -52 14 -82 -2z m35 -168 c-9 -56 -19 -106 -22 -110 -11 -18 -34 -8 -34 14 0 47 32 202 43 209 26 16 30 -14 13 -113z"
       id="path378" />
    <path
       d="M1355 798 c-21 -115 -51 -308 -49 -310 1 -2 37 -1 79 2 97 6 107 18 129 140 35 186 29 200 -80 200 l-73 0 -6 -32z m105 -45 c0 -40 -30 -186 -41 -199 -33 -40 -35 -5 -9 149 10 55 15 67 31 67 11 0 19 -7 19 -17z"
       id="path380" />
    <path
       d="M1776 803 c-10 -49 -46 -267 -49 -292 -2 -20 3 -24 31 -25 28 -1 33 3 37 29 17 95 33 169 35 160 1 -5 7 -50 13 -99 l12 -89 37 -1 c32 -1 38 2 43 24 5 26 55 312 55 317 0 2 -15 3 -34 3 -38 0 -35 7 -58 -125 -12 -70 -12 -70 -19 -30 -3 22 -10 66 -14 98 l-6 57 -39 0 c-34 0 -39 -3 -44 -27z"
       id="path382" />
    <path
       d="M2010 822 c0 -4 -11 -70 -24 -147 -36 -206 -36 -188 1 -189 33 -1 43 9 43 44 0 28 19 74 28 66 3 -4 9 -30 12 -58 l5 -51 38 -1 c42 -1 41 -8 23 116 l-12 87 43 71 43 70 -33 0 c-29 0 -36 -7 -71 -66 -21 -35 -40 -63 -42 -61 -2 2 0 28 6 57 14 72 14 70 -25 70 -19 0 -35 -3 -35 -8z"
       id="path384" />
    <path
       d="M2220 824 c0 -4 -11 -74 -25 -158 -14 -83 -27 -157 -28 -164 -1 -11 17 -14 78 -14 68 0 80 3 86 19 15 37 10 43 -36 43 -48 0 -52 7 -39 58 5 18 13 22 45 22 24 0 39 5 39 13 0 6 3 22 6 35 6 20 3 22 -35 22 -40 0 -41 1 -35 28 9 37 13 40 59 44 35 3 40 6 43 31 l3 27 -80 0 c-45 0 -81 -3 -81 -6z"
       id="path386" />
    <path
       d="M2407 753 c10 -97 10 -154 0 -218 l-8 -50 32 1 c36 1 42 10 54 89 4 28 29 96 55 153 48 101 48 102 24 102 -18 0 -28 -9 -40 -37 -43 -101 -37 -100 -49 -10 -6 46 -7 47 -41 47 l-36 0 9 -77z"
       id="path388" />
    <path
       d="m 2620,813 c 0,-10 -3,-28 -6,-40 -6,-22 -4,-23 42,-21 l 49,1 c 11.5302,32.06889 4.2569,26.15474 7,45 l 5,32 h -49 c -39,0 -48,-3 -48,-17 z"
       id="path390"
       sodipodi:nodetypes="scccccss" />
    <path
       d="m 2826,799 c -9,-48 -9,-49 39,-49 41,0 45,2 51,28 3,15 7,33 10,40 2,8 -11,12 -45,12 -46,0 -49,-1 -55,-31 z"
       id="path392"
       sodipodi:nodetypes="csccsc" />
    <path
       d="m 3044,803 c -3,-16 -7,-34 -10,-40 -2,-9 11,-13 45,-13 46,0 49,1 55,31 9,48 9,49 -39,49 -41,0 -45,-2 -51,-27 z"
       id="path394"
       sodipodi:nodetypes="ccscsc" />
    <path
       d="M700 744 c-32 -12 -33 -13 -10 -14 21 -2 18 -4 -15 -15 -22 -8 -32 -14 -22 -14 28 -2 19 -20 -15 -30 -29 -8 -30 -9 -8 -10 32 -1 14 -18 -25 -24 -24 -3 -21 -5 15 -7 42 -2 43 -3 15 -10 l-30 -8 34 -1 c30 -1 33 1 27 23 -5 19 -1 26 15 31 17 6 18 9 8 16 -11 6 -10 9 4 14 9 4 23 20 31 36 8 16 14 28 13 28 -1 -1 -18 -7 -37 -15z"
       id="path396" />
    <path
       d="m 2704,713 c -3,-16 -7,-34 -10,-40 -2,-9 11,-13 45,-13 46,0 49,1 55,31 9,48 9,49 -39,49 -41,0 -45,-2 -51,-27 z"
       id="path398"
       sodipodi:nodetypes="ccscsc" />
    <path
       d="m 2920,723 c 0,-10 -3,-28 -6,-40 -6,-21 -3,-23 40,-23 48,0 49,1 60,53 6,27 6,27 -44,27 -41,0 -50,-3 -50,-17 z"
       id="path400"
       sodipodi:nodetypes="scscss" />
    <path
       d="m 2581,618 c -1,-9 -3,-23 -6,-30 -4,-11 6,-15 45,-17 42,-2 50,1 50,16 0,10 3,28 6,41 6,21 4,22 -42,20 l -49,-1 c -2.8028,-5.82412 -3.9418,-19.24199 -4,-29 z"
       id="path402"
       sodipodi:nodetypes="cccscccc" />
    <path
       d="m 2796,638 c -20,-64 -19,-65 34,-64 37,1 50,5 50,16 0,8 3,25 6,38 6,20 3,22 -40,22 -29,0 -48,-5 -50,-12 z"
       id="path404"
       sodipodi:nodetypes="ccscsc" />
    <path
       d="m 3006,619 c -3,-17 -6,-35 -6,-39 0,-4 20,-6 44,-6 43,1 45,2 54,39 l 10,37 h -48 c -45,0 -48,-1 -54,-31 z"
       id="path406"
       sodipodi:nodetypes="cscccsc" />
    <path
       d="m 2563,510 c -36,-15 -53,-53 -74,-165 -24,-138 -17,-158 54,-163 41,-3 51,1 77,27 17,16 30,38 30,49 0,11 3,27 6,36 5,12 -1,16 -25,16 -27,0 -31,-4 -41,-39 -11,-41 -32,-58 -48,-38 -12,14 21,214 37,230 19,19 44,-1 39,-33 -4,-28 -3,-30 29,-30 32,0 33,2 33,38 0,21 -6,46 -13,55 -14,21 -73,30 -104,17 z"
       id="path408"
       sodipodi:nodetypes="ccccscsccscsscc" />
    <path
       d="m 2707,345 -55,-165 31,1 c 35.9008,-3.77088 30.1945,18.36612 37,37 7,16 18,22 40,22 27,0 30,-3 30,-30 0,-27 3,-30 30,-30 h 30 v 165 165 h -44 -44 z m 96,78 c -10,-120 -13,-133 -34,-133 -23,0 -23,11 -5,76 8,27 17,61 20,77 10,45 24,31 19,-20 z"
       id="path410"
       sodipodi:nodetypes="ccccssscccccccsccc" />
    <path
       d="m 2902,367 c -13,-78 -26,-152 -29,-164 -4,-20 -1,-23 25,-23 32,0 36,10 54,125 2,12 11,20 23,20 18,0 20,-6 17,-72 l -3,-73 h 29 c 29,0 30,2 37,57 4,31 9,62 12,69 2,7 -4,21 -14,31 -18,18 -18,19 9,45 21,20 28,35 28,65 0,54 -13,63 -94,63 h -71 z m 128,68 c 0,-7 -4.4923,-17.8525 -3.4923,-25.8525 -8.6112,-9.54088 -7.2474,-10.06064 -17.5077,-20.1475 -27,-27 -39,-24 -39,12 0,47 17,72 40,59 11,-6 20,-17 20,-25 z"
       id="path412"
       sodipodi:nodetypes="ccscsccsccscssccsccscs" />
    <path
       d="M1296 452 c-2 -4 -7 -24 -11 -45 l-7 -37 50 0 c57 0 57 0 66 53 l7 37 -50 0 c-27 0 -52 -3 -55 -8z"
       id="path414" />
    <path
       d="M1496 415 l-7 -45 -53 0 c-57 0 -66 -9 -66 -67 0 -21 5 -23 49 -23 l50 0 8 43 9 42 51 3 c54 3 53 2 67 65 6 27 6 27 -48 27 l-54 0 -6 -45z"
       id="path416" />
    <path
       d="M1706 429 c-11 -57 -10 -59 44 -59 28 0 50 3 50 8 0 4 4 24 9 45 l9 37 -53 0 c-51 0 -53 -1 -59 -31z"
       id="path418" />
    <path
       d="M1927 443 c-3 -10 -8 -30 -11 -45 -6 -26 -10 -28 -61 -28 -40 0 -55 -4 -55 -14 0 -7 -3 -28 -6 -45 l-6 -31 51 0 51 0 11 45 11 45 49 0 c53 0 54 -2 43 -59 -6 -30 -8 -31 -59 -31 -51 0 -53 -1 -59 -31 -9 -49 -9 -49 44 -49 46 0 50 2 56 28 11 51 12 52 63 52 52 0 51 -1 65 63 6 25 10 27 56 27 55 0 55 1 65 53 l7 37 -50 0 c-53 0 -52 1 -66 -62 -6 -26 -10 -28 -57 -28 l-50 0 7 45 6 45 -50 0 c-40 0 -52 -4 -55 -17z"
       id="path420" />
    <path
       d="M2346 429 c-11 -57 -10 -59 43 -59 52 0 51 -1 65 63 6 27 6 27 -48 27 -52 0 -54 -1 -60 -31z"
       id="path422" />
    <path
       d="M230 396 c0 -2 11 -6 25 -8 14 -3 25 -1 25 3 0 5 -11 9 -25 9 -14 0 -25 -2 -25 -4z"
       id="path424" />
    <path
       d="M1587 353 c-3 -10 -8 -30 -11 -45 -6 -26 -10 -28 -57 -28 -51 0 -52 -1 -63 -52 -6 -28 -6 -28 48 -28 l54 0 7 40 7 40 53 0 c51 0 53 1 59 31 11 57 10 59 -43 59 -39 0 -51 -4 -54 -17z"
       id="path426" />
    <path
       d="M2226 348 c-3 -13 -6 -33 -6 -45 0 -21 5 -23 49 -23 46 0 49 1 55 31 11 57 10 59 -43 59 -42 0 -49 -3 -55 -22z"
       id="path428" />
    <path
       d="M240 312 c8 -5 26 -13 40 -16 17 -5 20 -4 10 2 -8 5 -26 13 -40 16 -17 5 -20 4 -10 -2z"
       id="path430" />
    <path
       d="M1254 253 c-3 -16 -7 -34 -10 -40 -2 -9 12 -13 50 -13 47 0 54 3 60 23 14 51 9 57 -44 57 -46 0 -50 -2 -56 -27z"
       id="path432" />
    <path
       d="M1676 268 c-21 -67 -20 -68 39 -68 46 0 55 3 55 18 0 9 3 27 6 40 6 21 3 22 -45 22 -33 0 -53 -5 -55 -12z"
       id="path434" />
    <path
       d="M2096 258 c-14 -52 -9 -58 44 -58 46 0 50 2 56 28 3 15 7 33 10 40 2 8 -12 12 -50 12 -47 0 -54 -3 -60 -22z"
       id="path436" />
    <path
       d="M2316 268 c-21 -67 -20 -68 38 -68 52 0 54 1 60 31 3 17 6 35 6 40 0 14 -100 11 -104 -3z"
       id="path438" />
    <path
       d="M510 206 c0 -2 9 -6 20 -9 11 -3 18 -1 14 4 -5 9 -34 13 -34 5z"
       id="path440" />
  </g>
</svg>
