<?xml version="1.0" encoding="UTF-8"?>
<svg id="Calque_1" data-name="Calque 1" xmlns="http://www.w3.org/2000/svg" viewBox="0 0 474.31 546.62">
  <defs>
    <style>
      .cls-1 {
        fill: #fff;
      }

      .cls-2 {
        fill: #ed1c24;
      }

      .cls-2, .cls-3 {
        font-family: Roboto-Regular, Roboto;
        font-size: 34px;
      }

      .cls-4 {
        fill: #4d4d4d;
      }

      .cls-5 {
        fill: #f15a24;
      }

      .cls-6 {
        fill: #71ccae;
      }

      .cls-7 {
        fill: #ff5a45;
      }

      .cls-3 {
        fill: lime;
      }

      .cls-8 {
        fill: #616161;
      }

      .cls-9 {
        fill: #00ff0c;
      }
    </style>
  </defs>
  <g>
    <g>
      <g>
        <path class="cls-6" d="m431.23,546.37h-165.87c-4.31,0-7.16-4.48-5.34-8.38l30.51-65.39h178.86l-32.84,70.37c-.97,2.07-3.05,3.4-5.34,3.4Z"/>
        <path class="cls-4" d="m402.49,546.37c.16-15.75-16.84-83.75-118.84-58.75.09-.08-6,11-8,17,31-2,57,1,58.33,41.87,5.4-.26,63.85-.12,68.51-.12Z"/>
        <g>
          <polygon class="cls-1" points="405.65 546.13 405.44 539.86 410.22 539.41 410.65 546.12 405.65 546.13"/>
          <path class="cls-1" d="m403.2,527.01c-1.16-4.2-2.74-8.28-4.74-12.15l3.49-1.87c2.25,4.06,4.07,8.36,5.45,12.79l-4.2,1.24Z"/>
          <path class="cls-1" d="m391.24,503.98c-2.8-3.35-5.99-6.39-9.47-9.05l1.86-2.51c3.75,2.69,7.21,5.79,10.3,9.25l-2.68,2.32Z"/>
          <path class="cls-1" d="m370.53,488.03c-3.97-1.93-8.14-3.49-12.4-4.72l.6-2.21c4.42,1.13,8.76,2.61,12.95,4.48l-1.14,2.46Z"/>
          <path class="cls-1" d="m345.07,480.53c-4.42-.64-8.88-1.01-13.35-1.16l.03-1.45c4.52.02,9.05.25,13.56.76l-.24,1.86Z"/>
          <path class="cls-1" d="m318.28,479.52c-4.48.24-8.95.66-13.41,1.22l-.09-.61c4.45-.7,8.93-1.26,13.43-1.65l.07,1.03Z"/>
          <polygon class="cls-1" points="291.52 482.85 285.15 484.12 291.48 482.65 291.52 482.85"/>
        </g>
        <g>
          <polygon class="cls-1" points="322.49 546.43 322.64 540.04 327.21 539.83 327.49 546.43 322.49 546.43"/>
          <path class="cls-1" d="m320.81,528.33c-1.29-3.7-3.43-7.09-6.34-9.78l1.91-2.2c3.44,2.79,6.18,6.51,7.92,10.62l-3.49,1.36Z"/>
          <path class="cls-1" d="m304.16,512.4c-3.84-1.43-7.91-2.3-12.03-2.83l.12-1.25c4.22.27,8.45.88,12.57,2.11l-.66,1.98Z"/>
          <polygon class="cls-1" points="279.64 508.89 273.15 509.12 279.62 508.47 279.64 508.89"/>
        </g>
        <g>
          <polygon class="cls-1" points="369.04 546.43 369.08 540.02 373.82 539.85 374.04 546.43 369.04 546.43"/>
          <path class="cls-1" d="m368,527.98c-.74-3.93-1.93-7.76-3.7-11.3l3.31-1.75c2.12,3.82,3.58,7.97,4.55,12.18l-4.15.87Z"/>
          <path class="cls-1" d="m357.27,507.16c-2.87-2.76-6.23-5.03-9.84-6.85l1.19-2.48c3.89,1.77,7.6,4.06,10.85,6.94l-2.2,2.39Z"/>
          <path class="cls-1" d="m336,496.07c-3.96-1.04-8.03-1.75-12.13-2.23l.17-1.75c4.18.32,8.36.88,12.49,1.79l-.53,2.19Z"/>
          <path class="cls-1" d="m311.49,493.05c-4.14-.07-8.29.03-12.44.25l-.06-.76c4.15-.39,8.32-.66,12.49-.75v1.26Z"/>
          <polygon class="cls-1" points="286.6 494.34 280.15 495.12 286.57 494.08 286.6 494.34"/>
        </g>
      </g>
      <path class="cls-5" d="m468.37,459.62c1.02,0,1.92.49,2.47,1.35.55.86.62,1.89.18,2.81l-36.47,78.15c-.48,1.03-1.52,1.69-2.65,1.69h-166.92c-1.02,0-1.92-.49-2.47-1.35s-.62-1.89-.18-2.81l36.47-78.15c.48-1.03,1.52-1.69,2.65-1.69h166.92m0-3h-166.92c-2.3,0-4.4,1.33-5.37,3.42l-36.47,78.15c-1.83,3.93,1.03,8.43,5.37,8.43h166.92c2.3,0,4.4-1.33,5.37-3.42l36.47-78.15c1.83-3.93-1.03-8.43-5.37-8.43h0Z"/>
    </g>
    <g>
      <path class="cls-6" d="m432.67,527.21h-165.87c-4.31,0-7.16-4.48-5.34-8.38l30.51-65.39h178.86l-32.84,70.37c-.97,2.07-3.05,3.4-5.34,3.4Z"/>
      <path class="cls-4" d="m312.37,527.21c0-13.33,20.18-78.5,148.14-55.27-.09-.08-3.43,7.34-6.94,14.79-17.33-2.33-71.37-4.14-72.69,40.6-5.4-.26-63.85-.12-68.51-.12Z"/>
      <g>
        <path class="cls-1" d="m300.13,527.34c.03-2.33.28-4.6.65-6.84l4.77.75c-.29,2.04-.45,4.1-.43,6.1h-5Z"/>
        <path class="cls-1" d="m304.89,506.71c1.88-4.4,4.25-8.58,7.03-12.46l3.37,2.36c-2.51,3.7-4.62,7.67-6.27,11.81l-4.13-1.71Z"/>
        <path class="cls-1" d="m321.4,483.61c3.51-3.2,7.33-6.03,11.36-8.49l1.8,2.88c-3.8,2.45-7.36,5.24-10.6,8.35l-2.56-2.74Z"/>
        <path class="cls-1" d="m345.39,468.83c4.36-1.75,8.84-3.18,13.37-4.32l.69,2.59c-4.4,1.23-8.71,2.73-12.89,4.53l-1.17-2.8Z"/>
        <path class="cls-1" d="m372.51,461.87c4.62-.63,9.26-1.03,13.9-1.25l.12,1.96c-4.58.33-9.15.85-13.67,1.58l-.34-2.29Z"/>
        <polygon class="cls-1" points="400.34 460.52 414.22 461.34 414.13 462.58 400.31 462.12 400.34 460.52"/>
        <polygon class="cls-1" points="428.02 462.93 441.71 465.18 441.62 465.7 427.9 463.81 428.02 462.93"/>
        <polygon class="cls-1" points="455.34 467.99 461.67 469.48 455.3 468.16 455.34 467.99"/>
      </g>
      <g>
        <path class="cls-1" d="m387.37,527.27c.07-2.32.34-4.61.81-6.87l4.53.82c-.29,2.01-.41,4.04-.34,6.05h-5Z"/>
        <path class="cls-1" d="m394,507.05c2.85-3.96,6.58-7.2,10.68-9.63l1.56,2.47c-3.66,2.48-6.82,5.62-9.13,9.28l-3.11-2.11Z"/>
        <path class="cls-1" d="m417.78,492.19c4.54-1.13,9.16-1.75,13.78-2.03l.11,1.23c-4.53.56-9.02,1.44-13.33,2.8l-.56-2Z"/>
        <polygon class="cls-1" points="445.41 490.21 451.9 490.74 445.4 490.6 445.41 490.21"/>
      </g>
      <g>
        <path class="cls-1" d="m340.83,527.27c.04-2.35.34-4.66.81-6.91l4.68.9c-.35,2-.52,4.02-.49,6.01h-5Z"/>
        <path class="cls-1" d="m346.95,506.75c2.44-4.2,5.48-8.02,8.93-11.38l2.67,2.65c-3.1,3.25-5.78,6.88-7.87,10.8l-3.72-2.08Z"/>
        <path class="cls-1" d="m367.28,486.69c4.1-2.43,8.44-4.42,12.89-6.01l.97,2.57c-4.25,1.7-8.34,3.75-12.15,6.21l-1.71-2.77Z"/>
        <path class="cls-1" d="m393.82,476.98c4.62-.9,9.28-1.48,13.95-1.82l.16,1.74c-4.59.5-9.16,1.25-13.64,2.28l-.47-2.2Z"/>
        <path class="cls-1" d="m421.79,474.82c4.67.1,9.33.4,13.97.85l-.06.74c-4.64-.28-9.28-.41-13.91-.34v-1.24Z"/>
        <polygon class="cls-1" points="449.62 477.47 456.03 478.59 449.59 477.71 449.62 477.47"/>
      </g>
      <path class="cls-7" d="m468.37,442.36c1.02,0,1.92.49,2.47,1.35.55.86.62,1.89.18,2.81l-36.47,78.15c-.48,1.03-1.52,1.69-2.65,1.69h-166.92c-1.02,0-1.92-.49-2.47-1.35s-.62-1.88-.18-2.81l36.47-78.15c.48-1.03,1.52-1.69,2.65-1.69h166.92m0-3h-166.92c-2.3,0-4.4,1.33-5.37,3.42l-36.47,78.15c-1.83,3.93,1.03,8.43,5.37,8.43h166.92c2.3,0,4.4-1.33,5.37-3.42l36.47-78.15c1.83-3.93-1.03-8.43-5.37-8.43h0Z"/>
    </g>
  </g>
  <g>
    <g>
      <path class="cls-1" d="m226.7,212.12v30.13c0,19.37-15.71,35.08-35.08,35.08h-40.84c-19.37,0-35.08,15.71-35.08,35.08v67.52"/>
      <path class="cls-8" d="m225.11,212.12v29.3c.02,1.24-.1,2.35-.14,3.53,0,.58-.09,1.16-.19,1.74l-.26,1.73c-.06.58-.24,1.14-.38,1.7l-.43,1.69c-.32,1.12-.78,2.19-1.16,3.29-1.77,4.32-4.51,8.21-7.89,11.42-3.38,3.21-7.44,5.7-11.82,7.26-1.08.45-2.22.71-3.35,1-1.12.34-2.28.45-3.43.64-1.15.23-2.32.19-3.48.28-1.14.09-2.41.03-3.62.05h-36.62c-.62,0-1.21-.01-1.84.01l-1.91.1c-.64.05-1.28.03-1.91.13l-1.89.29c-5.03.82-9.89,2.72-14.16,5.52-8.57,5.57-14.54,14.92-16.04,25.02l-.28,1.89-.1,1.91-.09,1.91v44.62h-11.57l13.15,22.78,13.15-22.78h-11.57v-44.62l.08-1.75.09-1.75.26-1.73c1.37-9.22,6.82-17.77,14.65-22.85,3.9-2.56,8.33-4.29,12.93-5.04l1.73-.26c.58-.1,1.16-.08,1.74-.12l1.75-.09c.58-.03,1.21,0,1.82-.01h36.62c1.24-.02,2.41.04,3.71-.05,1.27-.09,2.55-.06,3.81-.31,1.26-.21,2.53-.33,3.76-.7,1.24-.31,2.48-.61,3.67-1.09,4.81-1.71,9.24-4.44,12.95-7.95,3.7-3.51,6.7-7.77,8.64-12.5.42-1.2.92-2.38,1.27-3.61l.48-1.85c.15-.62.34-1.23.41-1.87l.29-1.89c.1-.63.2-1.26.21-1.9.05-1.26.17-2.58.15-3.78v-29.3h-3.17Z"/>
    </g>
    <g>
      <path class="cls-1" d="m259.66,212.01v30.13c0,19.37,15.71,35.08,35.08,35.08h40.84c19.37,0,35.08,15.71,35.08,35.08v67.52"/>
      <path class="cls-8" d="m258.07,212.01v29.3c-.02,1.2.1,2.53.15,3.78,0,.64.1,1.27.21,1.9l.29,1.89c.07.64.26,1.25.41,1.87l.48,1.85c.35,1.23.85,2.41,1.27,3.61,1.94,4.73,4.94,8.99,8.64,12.5,3.7,3.51,8.14,6.24,12.95,7.95,1.18.49,2.43.78,3.67,1.09,1.23.37,2.5.5,3.76.7,1.26.25,2.54.21,3.81.31,1.3.09,2.47.03,3.71.05h36.62c.6,0,1.23-.01,1.82.01l1.75.09c.58.04,1.17.02,1.74.12l1.73.26c4.6.75,9.03,2.48,12.93,5.04,7.84,5.09,13.28,13.64,14.65,22.86l.26,1.73.09,1.75.08,1.75v44.62h-11.57l13.15,22.78,13.15-22.78h-11.57v-44.62l-.09-1.91-.1-1.91-.28-1.89c-1.51-10.1-7.47-19.45-16.04-25.02-4.27-2.8-9.12-4.7-14.16-5.52l-1.89-.29c-.63-.1-1.27-.09-1.91-.13l-1.91-.1c-.63-.03-1.23,0-1.84-.01h-36.62c-1.21-.02-2.48.04-3.62-.05-1.16-.09-2.34-.04-3.48-.28-1.15-.19-2.32-.3-3.43-.64-1.13-.29-2.27-.55-3.35-1-4.39-1.56-8.44-4.05-11.82-7.26-3.38-3.2-6.12-7.1-7.89-11.42-.38-1.1-.84-2.18-1.16-3.29l-.43-1.69c-.14-.57-.32-1.12-.38-1.7l-.26-1.73c-.1-.58-.19-1.15-.19-1.74-.04-1.18-.16-2.29-.14-3.53v-29.3h-3.17Z"/>
    </g>
  </g>
  <g>
    <g>
      <g>
        <path class="cls-6" d="m172.18,546.35H6.32c-4.31,0-7.16-4.48-5.34-8.38l30.51-65.39h178.86l-32.84,70.37c-.97,2.07-3.05,3.4-5.34,3.4Z"/>
        <path class="cls-4" d="m143.44,546.35c.16-15.75-16.84-83.75-118.84-58.75.09-.08-6,11-8,17,31-2,57,1,58.33,41.87,5.4-.26,63.85-.12,68.51-.12Z"/>
        <g>
          <polygon class="cls-1" points="146.6 546.11 146.39 539.84 151.17 539.39 151.6 546.1 146.6 546.11"/>
          <path class="cls-1" d="m144.15,527c-1.16-4.2-2.74-8.28-4.74-12.15l3.49-1.87c2.25,4.06,4.07,8.36,5.45,12.79l-4.2,1.24Z"/>
          <path class="cls-1" d="m132.19,503.96c-2.8-3.35-5.99-6.39-9.47-9.05l1.86-2.51c3.75,2.69,7.21,5.79,10.3,9.25l-2.68,2.32Z"/>
          <path class="cls-1" d="m111.48,488.02c-3.97-1.93-8.14-3.49-12.4-4.72l.6-2.21c4.42,1.13,8.76,2.61,12.95,4.48l-1.14,2.46Z"/>
          <path class="cls-1" d="m86.02,480.51c-4.42-.64-8.88-1.01-13.35-1.16l.03-1.45c4.52.02,9.05.25,13.56.76l-.24,1.86Z"/>
          <path class="cls-1" d="m59.23,479.5c-4.48.24-8.95.66-13.41,1.22l-.09-.61c4.45-.7,8.93-1.26,13.43-1.65l.07,1.03Z"/>
          <polygon class="cls-1" points="32.47 482.83 26.1 484.1 32.43 482.63 32.47 482.83"/>
        </g>
        <g>
          <polygon class="cls-1" points="63.44 546.41 63.59 540.02 68.16 539.81 68.44 546.41 63.44 546.41"/>
          <path class="cls-1" d="m61.76,528.31c-1.29-3.7-3.43-7.09-6.34-9.78l1.91-2.2c3.44,2.79,6.18,6.51,7.92,10.62l-3.49,1.36Z"/>
          <path class="cls-1" d="m45.11,512.38c-3.84-1.43-7.91-2.3-12.03-2.83l.12-1.25c4.22.27,8.45.88,12.57,2.11l-.66,1.98Z"/>
          <polygon class="cls-1" points="20.59 508.88 14.1 509.1 20.57 508.45 20.59 508.88"/>
        </g>
        <g>
          <polygon class="cls-1" points="109.99 546.41 110.03 540 114.77 539.84 114.99 546.41 109.99 546.41"/>
          <path class="cls-1" d="m108.95,527.96c-.74-3.93-1.93-7.76-3.7-11.3l3.31-1.75c2.12,3.82,3.58,7.97,4.55,12.18l-4.15.87Z"/>
          <path class="cls-1" d="m98.22,507.15c-2.87-2.76-6.23-5.03-9.84-6.85l1.19-2.48c3.89,1.77,7.6,4.06,10.85,6.94l-2.2,2.39Z"/>
          <path class="cls-1" d="m76.95,496.06c-3.96-1.04-8.03-1.75-12.13-2.23l.17-1.75c4.18.32,8.36.88,12.49,1.79l-.53,2.19Z"/>
          <path class="cls-1" d="m52.44,493.03c-4.14-.07-8.29.03-12.44.25l-.06-.76c4.15-.39,8.32-.66,12.49-.75v1.26Z"/>
          <polygon class="cls-1" points="27.55 494.32 21.1 495.1 27.52 494.06 27.55 494.32"/>
        </g>
      </g>
      <path class="cls-9" d="m209.32,459.6c1.02,0,1.92.49,2.47,1.35s.62,1.89.18,2.81l-36.47,78.15c-.48,1.03-1.52,1.69-2.65,1.69H5.93c-1.02,0-1.92-.49-2.47-1.35-.55-.86-.62-1.89-.18-2.81l36.47-78.15c.48-1.03,1.52-1.69,2.65-1.69h166.92m0-3H42.4c-2.3,0-4.4,1.33-5.37,3.42L.56,538.17c-1.83,3.93,1.03,8.43,5.37,8.43h166.92c2.3,0,4.4-1.33,5.37-3.42l36.47-78.15c1.83-3.93-1.03-8.43-5.37-8.43h0Z"/>
    </g>
    <g>
      <path class="cls-6" d="m173.62,527.2H7.76c-4.31,0-7.16-4.48-5.34-8.38l30.51-65.39h178.86l-32.84,70.37c-.97,2.07-3.05,3.4-5.34,3.4Z"/>
      <path class="cls-4" d="m53.32,527.2c0-13.33,20.18-78.5,148.14-55.27-.09-.08-3.43,7.34-6.94,14.79-17.33-2.33-71.37-4.14-72.69,40.6-5.4-.26-63.85-.12-68.51-.12Z"/>
      <g>
        <path class="cls-1" d="m41.08,527.32c.03-2.33.28-4.6.65-6.84l4.77.75c-.29,2.04-.45,4.1-.43,6.1h-5Z"/>
        <path class="cls-1" d="m45.84,506.69c1.88-4.4,4.25-8.58,7.03-12.46l3.37,2.36c-2.51,3.7-4.62,7.67-6.27,11.81l-4.13-1.71Z"/>
        <path class="cls-1" d="m62.35,483.6c3.51-3.2,7.33-6.03,11.36-8.49l1.8,2.88c-3.8,2.45-7.36,5.24-10.6,8.35l-2.56-2.74Z"/>
        <path class="cls-1" d="m86.35,468.81c4.36-1.75,8.84-3.18,13.37-4.32l.69,2.59c-4.4,1.23-8.71,2.73-12.89,4.53l-1.17-2.8Z"/>
        <path class="cls-1" d="m113.46,461.86c4.62-.63,9.26-1.03,13.9-1.25l.12,1.96c-4.58.33-9.15.85-13.67,1.58l-.34-2.29Z"/>
        <polygon class="cls-1" points="141.29 460.5 155.17 461.32 155.08 462.56 141.26 462.1 141.29 460.5"/>
        <polygon class="cls-1" points="168.97 462.92 182.66 465.17 182.57 465.69 168.85 463.8 168.97 462.92"/>
        <polygon class="cls-1" points="196.29 467.98 202.62 469.46 196.25 468.14 196.29 467.98"/>
      </g>
      <g>
        <path class="cls-1" d="m128.32,527.26c.07-2.32.34-4.61.81-6.87l4.53.82c-.29,2.01-.41,4.04-.34,6.05h-5Z"/>
        <path class="cls-1" d="m134.95,507.04c2.85-3.96,6.58-7.2,10.68-9.63l1.56,2.47c-3.66,2.48-6.82,5.62-9.13,9.28l-3.11-2.11Z"/>
        <path class="cls-1" d="m158.73,492.17c4.54-1.13,9.16-1.75,13.78-2.03l.11,1.23c-4.53.56-9.02,1.44-13.33,2.8l-.56-2Z"/>
        <polygon class="cls-1" points="186.36 490.19 192.85 490.72 186.35 490.58 186.36 490.19"/>
      </g>
      <g>
        <path class="cls-1" d="m81.78,527.26c.04-2.35.34-4.66.81-6.91l4.68.9c-.35,2-.52,4.02-.49,6.01h-5Z"/>
        <path class="cls-1" d="m87.9,506.73c2.44-4.2,5.48-8.02,8.93-11.38l2.67,2.65c-3.1,3.25-5.78,6.88-7.87,10.8l-3.72-2.08Z"/>
        <path class="cls-1" d="m108.23,486.67c4.1-2.43,8.44-4.42,12.89-6.01l.97,2.57c-4.25,1.7-8.34,3.75-12.15,6.21l-1.71-2.77Z"/>
        <path class="cls-1" d="m134.77,476.96c4.62-.9,9.28-1.48,13.95-1.82l.16,1.74c-4.59.5-9.16,1.25-13.64,2.28l-.47-2.2Z"/>
        <path class="cls-1" d="m162.74,474.8c4.67.1,9.33.4,13.97.85l-.06.74c-4.64-.28-9.28-.41-13.91-.34v-1.24Z"/>
        <polygon class="cls-1" points="190.57 477.46 196.98 478.57 190.54 477.69 190.57 477.46"/>
      </g>
      <path class="cls-9" d="m209.32,442.34c1.02,0,1.92.49,2.47,1.35s.62,1.89.18,2.81l-36.47,78.15c-.48,1.03-1.52,1.69-2.65,1.69H5.93c-1.02,0-1.92-.49-2.47-1.35-.55-.86-.62-1.88-.18-2.81l36.47-78.15c.48-1.03,1.52-1.69,2.65-1.69h166.92m0-3H42.4c-2.3,0-4.4,1.33-5.37,3.42L.56,520.91c-1.83,3.93,1.03,8.43,5.37,8.43h166.92c2.3,0,4.4-1.33,5.37-3.42l36.47-78.15c1.83-3.93-1.03-8.43-5.37-8.43h0Z"/>
    </g>
    <g>
      <path class="cls-6" d="m173.62,509.93H7.76c-4.31,0-7.16-4.48-5.34-8.38l30.51-65.39h178.86l-32.84,70.37c-.97,2.07-3.05,3.4-5.34,3.4Z"/>
      <path class="cls-4" d="m53.32,509.93c0-13.33,20.18-78.5,148.14-55.27-.09-.08-3.43,7.34-6.94,14.79-17.33-2.33-71.37-4.14-72.69,40.6-5.4-.26-63.85-.12-68.51-.12Z"/>
      <g>
        <path class="cls-1" d="m41.08,510.06c.03-2.33.28-4.6.65-6.84l4.77.75c-.29,2.04-.45,4.1-.43,6.1h-5Z"/>
        <path class="cls-1" d="m45.84,489.43c1.88-4.4,4.25-8.58,7.03-12.46l3.37,2.36c-2.51,3.7-4.62,7.67-6.27,11.81l-4.13-1.71Z"/>
        <path class="cls-1" d="m62.35,466.33c3.51-3.2,7.33-6.03,11.36-8.49l1.8,2.88c-3.8,2.45-7.36,5.24-10.6,8.35l-2.56-2.74Z"/>
        <path class="cls-1" d="m86.35,451.55c4.36-1.75,8.84-3.18,13.37-4.32l.69,2.59c-4.4,1.23-8.71,2.73-12.89,4.53l-1.17-2.8Z"/>
        <path class="cls-1" d="m113.46,444.59c4.62-.63,9.26-1.03,13.9-1.25l.12,1.96c-4.58.33-9.15.85-13.67,1.58l-.34-2.29Z"/>
        <polygon class="cls-1" points="141.29 443.23 155.17 444.06 155.08 445.3 141.26 444.84 141.29 443.23"/>
        <polygon class="cls-1" points="168.97 445.65 182.66 447.9 182.57 448.42 168.85 446.53 168.97 445.65"/>
        <polygon class="cls-1" points="196.29 450.71 202.62 452.2 196.25 450.88 196.29 450.71"/>
      </g>
      <g>
        <path class="cls-1" d="m128.32,509.99c.07-2.32.34-4.61.81-6.87l4.53.82c-.29,2.01-.41,4.04-.34,6.05h-5Z"/>
        <path class="cls-1" d="m134.95,489.77c2.85-3.96,6.58-7.2,10.68-9.63l1.56,2.47c-3.66,2.48-6.82,5.62-9.13,9.28l-3.11-2.11Z"/>
        <path class="cls-1" d="m158.73,474.91c4.54-1.13,9.16-1.75,13.78-2.03l.11,1.23c-4.53.56-9.02,1.44-13.33,2.8l-.56-2Z"/>
        <polygon class="cls-1" points="186.36 472.93 192.85 473.46 186.35 473.32 186.36 472.93"/>
      </g>
      <g>
        <path class="cls-1" d="m81.78,509.99c.04-2.35.34-4.66.81-6.91l4.68.9c-.35,2-.52,4.02-.49,6.01h-5Z"/>
        <path class="cls-1" d="m87.9,489.47c2.44-4.2,5.48-8.02,8.93-11.38l2.67,2.65c-3.1,3.25-5.78,6.88-7.87,10.8l-3.72-2.08Z"/>
        <path class="cls-1" d="m108.23,469.41c4.1-2.43,8.44-4.42,12.89-6.01l.97,2.57c-4.25,1.7-8.34,3.75-12.15,6.21l-1.71-2.77Z"/>
        <path class="cls-1" d="m134.77,459.7c4.62-.9,9.28-1.48,13.95-1.82l.16,1.74c-4.59.5-9.16,1.25-13.64,2.28l-.47-2.2Z"/>
        <path class="cls-1" d="m162.74,457.54c4.67.1,9.33.4,13.97.85l-.06.74c-4.64-.28-9.28-.41-13.91-.34v-1.24Z"/>
        <polygon class="cls-1" points="190.57 460.19 196.98 461.31 190.54 460.42 190.57 460.19"/>
      </g>
      <path class="cls-9" d="m209.32,425.08c1.02,0,1.92.49,2.47,1.35s.62,1.88.18,2.81l-36.47,78.15c-.48,1.03-1.52,1.69-2.65,1.69H5.93c-1.02,0-1.92-.49-2.47-1.35-.55-.86-.62-1.89-.18-2.81l36.47-78.15c.48-1.03,1.52-1.69,2.65-1.69h166.92m0-3H42.4c-2.3,0-4.4,1.33-5.37,3.42L.56,503.65c-1.83,3.93,1.03,8.43,5.37,8.43h166.92c2.3,0,4.4-1.33,5.37-3.42l36.47-78.15c1.83-3.93-1.03-8.43-5.37-8.43h0Z"/>
    </g>
  </g>
  <g>
    <g>
      <g>
        <path class="cls-6" d="m322.18,193.64h-165.87c-4.31,0-7.16-4.48-5.34-8.38l30.51-65.39h178.86l-32.84,70.37c-.97,2.07-3.05,3.4-5.34,3.4Z"/>
        <path class="cls-4" d="m293.44,193.64c.16-15.75-16.84-83.75-118.84-58.75.09-.08-6,11-8,17,31-2,57,1,58.33,41.87,5.4-.26,63.85-.12,68.51-.12Z"/>
        <g>
          <polygon class="cls-1" points="296.6 193.4 296.39 187.13 301.17 186.68 301.6 193.39 296.6 193.4"/>
          <path class="cls-1" d="m294.15,174.29c-1.16-4.2-2.74-8.28-4.74-12.15l3.49-1.87c2.25,4.06,4.07,8.36,5.45,12.79l-4.2,1.24Z"/>
          <path class="cls-1" d="m282.19,151.25c-2.8-3.35-5.99-6.39-9.47-9.05l1.86-2.51c3.75,2.69,7.21,5.79,10.3,9.25l-2.68,2.32Z"/>
          <path class="cls-1" d="m261.48,135.31c-3.97-1.93-8.14-3.49-12.4-4.72l.6-2.21c4.42,1.13,8.76,2.61,12.95,4.48l-1.14,2.46Z"/>
          <path class="cls-1" d="m236.02,127.8c-4.42-.64-8.88-1.01-13.35-1.16l.03-1.45c4.52.02,9.05.25,13.56.76l-.24,1.86Z"/>
          <path class="cls-1" d="m209.23,126.79c-4.48.24-8.95.66-13.41,1.22l-.09-.61c4.45-.7,8.93-1.26,13.43-1.65l.07,1.03Z"/>
          <polygon class="cls-1" points="182.47 130.12 176.1 131.39 182.43 129.92 182.47 130.12"/>
        </g>
        <g>
          <polygon class="cls-1" points="213.44 193.7 213.59 187.31 218.16 187.1 218.44 193.7 213.44 193.7"/>
          <path class="cls-1" d="m211.76,175.6c-1.29-3.7-3.43-7.09-6.34-9.78l1.91-2.2c3.44,2.79,6.18,6.51,7.92,10.62l-3.49,1.36Z"/>
          <path class="cls-1" d="m195.11,159.67c-3.84-1.43-7.91-2.3-12.03-2.83l.12-1.25c4.22.27,8.45.88,12.57,2.11l-.66,1.98Z"/>
          <polygon class="cls-1" points="170.59 156.17 164.1 156.39 170.57 155.74 170.59 156.17"/>
        </g>
        <g>
          <polygon class="cls-1" points="259.99 193.7 260.03 187.29 264.77 187.13 264.99 193.7 259.99 193.7"/>
          <path class="cls-1" d="m258.95,175.25c-.74-3.93-1.93-7.76-3.7-11.3l3.31-1.75c2.12,3.82,3.58,7.97,4.55,12.18l-4.15.87Z"/>
          <path class="cls-1" d="m248.22,154.44c-2.87-2.76-6.23-5.03-9.84-6.85l1.19-2.48c3.89,1.77,7.6,4.06,10.85,6.94l-2.2,2.39Z"/>
          <path class="cls-1" d="m226.95,143.35c-3.96-1.04-8.03-1.75-12.13-2.23l.17-1.75c4.18.32,8.36.88,12.49,1.79l-.53,2.19Z"/>
          <path class="cls-1" d="m202.44,140.32c-4.14-.07-8.29.03-12.44.25l-.06-.76c4.15-.39,8.32-.66,12.49-.75v1.26Z"/>
          <polygon class="cls-1" points="177.55 141.61 171.1 142.39 177.52 141.35 177.55 141.61"/>
        </g>
      </g>
      <path class="cls-4" d="m359.32,106.89c1.02,0,1.92.49,2.47,1.35.55.86.62,1.88.18,2.81l-36.47,78.15c-.48,1.03-1.52,1.69-2.65,1.69h-166.92c-1.02,0-1.92-.49-2.47-1.35-.55-.86-.62-1.88-.18-2.81l36.47-78.15c.48-1.03,1.52-1.69,2.65-1.69h166.92m0-3h-166.92c-2.3,0-4.4,1.33-5.37,3.42l-36.47,78.15c-1.83,3.93,1.03,8.43,5.37,8.43h166.92c2.3,0,4.4-1.33,5.37-3.42l36.47-78.15c1.83-3.93-1.03-8.43-5.37-8.43h0Z"/>
    </g>
    <g>
      <path class="cls-6" d="m323.62,174.43h-165.87c-4.31,0-7.16-4.48-5.34-8.38l30.51-65.39h178.86l-32.84,70.37c-.97,2.07-3.05,3.4-5.34,3.4Z"/>
      <path class="cls-4" d="m203.32,174.43c0-13.33,20.18-78.5,148.14-55.27-.09-.08-3.43,7.34-6.94,14.79-17.33-2.33-71.37-4.14-72.69,40.6-5.4-.26-63.85-.12-68.51-.12Z"/>
      <g>
        <path class="cls-1" d="m191.08,174.56c.03-2.33.28-4.6.65-6.84l4.77.75c-.29,2.04-.45,4.1-.43,6.1h-5Z"/>
        <path class="cls-1" d="m195.84,153.93c1.88-4.4,4.25-8.58,7.03-12.46l3.37,2.36c-2.51,3.7-4.62,7.67-6.27,11.81l-4.13-1.71Z"/>
        <path class="cls-1" d="m212.35,130.83c3.51-3.2,7.33-6.03,11.36-8.49l1.8,2.88c-3.8,2.45-7.36,5.24-10.6,8.35l-2.56-2.74Z"/>
        <path class="cls-1" d="m236.35,116.05c4.36-1.75,8.84-3.18,13.37-4.32l.69,2.59c-4.4,1.23-8.71,2.73-12.89,4.53l-1.17-2.8Z"/>
        <path class="cls-1" d="m263.46,109.09c4.62-.63,9.26-1.03,13.9-1.25l.12,1.96c-4.58.33-9.15.85-13.67,1.58l-.34-2.29Z"/>
        <polygon class="cls-1" points="291.29 107.74 305.17 108.56 305.08 109.8 291.26 109.34 291.29 107.74"/>
        <polygon class="cls-1" points="318.97 110.15 332.66 112.4 332.57 112.92 318.85 111.03 318.97 110.15"/>
        <polygon class="cls-1" points="346.29 115.21 352.62 116.7 346.25 115.38 346.29 115.21"/>
      </g>
      <g>
        <path class="cls-1" d="m278.32,174.49c.07-2.32.34-4.61.81-6.87l4.53.82c-.29,2.01-.41,4.04-.34,6.05h-5Z"/>
        <path class="cls-1" d="m284.95,154.27c2.85-3.96,6.58-7.2,10.68-9.63l1.56,2.47c-3.66,2.48-6.82,5.62-9.13,9.28l-3.11-2.11Z"/>
        <path class="cls-1" d="m308.73,139.41c4.54-1.13,9.16-1.75,13.78-2.03l.11,1.23c-4.53.56-9.02,1.44-13.33,2.8l-.56-2Z"/>
        <polygon class="cls-1" points="336.36 137.43 342.85 137.96 336.35 137.82 336.36 137.43"/>
      </g>
      <g>
        <path class="cls-1" d="m231.78,174.49c.04-2.35.34-4.66.81-6.91l4.68.9c-.35,2-.52,4.02-.49,6.01h-5Z"/>
        <path class="cls-1" d="m237.9,153.97c2.44-4.2,5.48-8.02,8.93-11.38l2.67,2.65c-3.1,3.25-5.78,6.88-7.87,10.8l-3.72-2.08Z"/>
        <path class="cls-1" d="m258.23,133.91c4.1-2.43,8.44-4.42,12.89-6.01l.97,2.57c-4.25,1.7-8.34,3.75-12.15,6.21l-1.71-2.77Z"/>
        <path class="cls-1" d="m284.77,124.2c4.62-.9,9.28-1.48,13.95-1.82l.16,1.74c-4.59.5-9.16,1.25-13.64,2.28l-.47-2.2Z"/>
        <path class="cls-1" d="m312.74,122.04c4.67.1,9.33.4,13.97.85l-.06.74c-4.64-.28-9.28-.41-13.91-.34v-1.24Z"/>
        <polygon class="cls-1" points="340.57 124.69 346.98 125.81 340.54 124.93 340.57 124.69"/>
      </g>
      <path class="cls-4" d="m359.32,89.58c1.02,0,1.92.49,2.47,1.35.55.86.62,1.88.18,2.81l-36.47,78.15c-.48,1.03-1.52,1.69-2.65,1.69h-166.92c-1.02,0-1.92-.49-2.47-1.35-.55-.86-.62-1.88-.18-2.81l36.47-78.15c.48-1.03,1.52-1.69,2.65-1.69h166.92m0-3h-166.92c-2.3,0-4.4,1.33-5.37,3.42l-36.47,78.15c-1.83,3.93,1.03,8.43,5.37,8.43h166.92c2.3,0,4.4-1.33,5.37-3.42l36.47-78.15c1.83-3.93-1.03-8.43-5.37-8.43h0Z"/>
    </g>
    <g>
      <path class="cls-6" d="m323.62,157.12h-165.87c-4.31,0-7.16-4.48-5.34-8.38l30.51-65.39h178.86l-32.84,70.37c-.97,2.07-3.05,3.4-5.34,3.4Z"/>
      <path class="cls-4" d="m203.32,157.12c0-13.33,20.18-78.5,148.14-55.27-.09-.08-3.43,7.34-6.94,14.79-17.33-2.33-71.37-4.14-72.69,40.6-5.4-.26-63.85-.12-68.51-.12Z"/>
      <g>
        <path class="cls-1" d="m191.08,157.24c.03-2.33.28-4.6.65-6.84l4.77.75c-.29,2.04-.45,4.1-.43,6.1h-5Z"/>
        <path class="cls-1" d="m195.84,136.61c1.88-4.4,4.25-8.58,7.03-12.46l3.37,2.36c-2.51,3.7-4.62,7.67-6.27,11.81l-4.13-1.71Z"/>
        <path class="cls-1" d="m212.35,113.52c3.51-3.2,7.33-6.03,11.36-8.49l1.8,2.88c-3.8,2.45-7.36,5.24-10.6,8.35l-2.56-2.74Z"/>
        <path class="cls-1" d="m236.35,98.73c4.36-1.75,8.84-3.18,13.37-4.32l.69,2.59c-4.4,1.23-8.71,2.73-12.89,4.53l-1.17-2.8Z"/>
        <path class="cls-1" d="m263.46,91.78c4.62-.63,9.26-1.03,13.9-1.25l.12,1.96c-4.58.33-9.15.85-13.67,1.58l-.34-2.29Z"/>
        <polygon class="cls-1" points="291.29 90.42 305.17 91.24 305.08 92.48 291.26 92.02 291.29 90.42"/>
        <polygon class="cls-1" points="318.97 92.84 332.66 95.09 332.57 95.61 318.85 93.72 318.97 92.84"/>
        <polygon class="cls-1" points="346.29 97.9 352.62 99.38 346.25 98.06 346.29 97.9"/>
      </g>
      <g>
        <path class="cls-1" d="m278.32,157.18c.07-2.32.34-4.61.81-6.87l4.53.82c-.29,2.01-.41,4.04-.34,6.05h-5Z"/>
        <path class="cls-1" d="m284.95,136.96c2.85-3.96,6.58-7.2,10.68-9.63l1.56,2.47c-3.66,2.48-6.82,5.62-9.13,9.28l-3.11-2.11Z"/>
        <path class="cls-1" d="m308.73,122.09c4.54-1.13,9.16-1.75,13.78-2.03l.11,1.23c-4.53.56-9.02,1.44-13.33,2.8l-.56-2Z"/>
        <polygon class="cls-1" points="336.36 120.11 342.85 120.65 336.35 120.51 336.36 120.11"/>
      </g>
      <g>
        <path class="cls-1" d="m231.78,157.18c.04-2.35.34-4.66.81-6.91l4.68.9c-.35,2-.52,4.02-.49,6.01h-5Z"/>
        <path class="cls-1" d="m237.9,136.65c2.44-4.2,5.48-8.02,8.93-11.38l2.67,2.65c-3.1,3.25-5.78,6.88-7.87,10.8l-3.72-2.08Z"/>
        <path class="cls-1" d="m258.23,116.59c4.1-2.43,8.44-4.42,12.89-6.01l.97,2.57c-4.25,1.7-8.34,3.75-12.15,6.21l-1.71-2.77Z"/>
        <path class="cls-1" d="m284.77,106.88c4.62-.9,9.28-1.48,13.95-1.82l.16,1.74c-4.59.5-9.16,1.25-13.64,2.28l-.47-2.2Z"/>
        <path class="cls-1" d="m312.74,104.73c4.67.1,9.33.4,13.97.85l-.06.74c-4.64-.28-9.28-.41-13.91-.34v-1.24Z"/>
        <polygon class="cls-1" points="340.57 107.38 346.98 108.49 340.54 107.61 340.57 107.38"/>
      </g>
      <path class="cls-4" d="m359.32,72.26c1.02,0,1.92.49,2.47,1.35.55.86.62,1.88.18,2.81l-36.47,78.15c-.48,1.03-1.52,1.69-2.65,1.69h-166.92c-1.02,0-1.92-.49-2.47-1.35-.55-.86-.62-1.89-.18-2.81l36.47-78.15c.48-1.03,1.52-1.69,2.65-1.69h166.92m0-3h-166.92c-2.3,0-4.4,1.33-5.37,3.42l-36.47,78.15c-1.83,3.93,1.03,8.43,5.37,8.43h166.92c2.3,0,4.4-1.33,5.37-3.42l36.47-78.15c1.83-3.93-1.03-8.43-5.37-8.43h0Z"/>
    </g>
    <g>
      <g>
        <path class="cls-6" d="m321.18,141.7h-165.87c-4.31,0-7.16-4.48-5.34-8.38l30.51-65.39h178.86l-32.84,70.37c-.97,2.07-3.05,3.4-5.34,3.4Z"/>
        <path class="cls-4" d="m292.44,141.7c.16-15.75-16.84-83.75-118.84-58.75.09-.08-6,11-8,17,31-2,57,1,58.33,41.87,5.4-.26,63.85-.12,68.51-.12Z"/>
        <g>
          <polygon class="cls-1" points="295.6 141.45 295.39 135.18 300.17 134.73 300.6 141.44 295.6 141.45"/>
          <path class="cls-1" d="m293.15,122.34c-1.16-4.2-2.74-8.28-4.74-12.15l3.49-1.87c2.25,4.06,4.07,8.36,5.45,12.79l-4.2,1.24Z"/>
          <path class="cls-1" d="m281.19,99.3c-2.8-3.35-5.99-6.39-9.47-9.05l1.86-2.51c3.75,2.69,7.21,5.79,10.3,9.25l-2.68,2.32Z"/>
          <path class="cls-1" d="m260.48,83.36c-3.97-1.93-8.14-3.49-12.4-4.72l.6-2.21c4.42,1.13,8.76,2.61,12.95,4.48l-1.14,2.46Z"/>
          <path class="cls-1" d="m235.02,75.85c-4.42-.64-8.88-1.01-13.35-1.16l.03-1.45c4.52.02,9.05.25,13.56.76l-.24,1.86Z"/>
          <path class="cls-1" d="m208.23,74.84c-4.48.24-8.95.66-13.41,1.22l-.09-.61c4.45-.7,8.93-1.26,13.43-1.65l.07,1.03Z"/>
          <polygon class="cls-1" points="181.47 78.17 175.1 79.45 181.43 77.97 181.47 78.17"/>
        </g>
        <g>
          <polygon class="cls-1" points="212.44 141.76 212.59 135.37 217.16 135.15 217.44 141.76 212.44 141.76"/>
          <path class="cls-1" d="m210.76,123.65c-1.29-3.7-3.43-7.09-6.34-9.78l1.91-2.2c3.44,2.79,6.18,6.51,7.92,10.62l-3.49,1.36Z"/>
          <path class="cls-1" d="m194.11,107.73c-3.84-1.43-7.91-2.3-12.03-2.83l.12-1.25c4.22.27,8.45.88,12.57,2.11l-.66,1.98Z"/>
          <polygon class="cls-1" points="169.59 104.22 163.1 104.45 169.57 103.79 169.59 104.22"/>
        </g>
        <g>
          <polygon class="cls-1" points="258.99 141.76 259.03 135.34 263.77 135.18 263.99 141.76 258.99 141.76"/>
          <path class="cls-1" d="m257.95,123.31c-.74-3.93-1.93-7.76-3.7-11.3l3.31-1.75c2.12,3.82,3.58,7.97,4.55,12.18l-4.15.87Z"/>
          <path class="cls-1" d="m247.22,102.49c-2.87-2.76-6.23-5.03-9.84-6.85l1.19-2.48c3.89,1.77,7.6,4.06,10.85,6.94l-2.2,2.39Z"/>
          <path class="cls-1" d="m225.95,91.4c-3.96-1.04-8.03-1.75-12.13-2.23l.17-1.75c4.18.32,8.36.88,12.49,1.79l-.53,2.19Z"/>
          <path class="cls-1" d="m201.44,88.38c-4.14-.07-8.29.03-12.44.25l-.06-.76c4.15-.39,8.32-.66,12.49-.75v1.26Z"/>
          <polygon class="cls-1" points="176.55 89.66 170.1 90.45 176.52 89.4 176.55 89.66"/>
        </g>
      </g>
      <path class="cls-4" d="m358.32,54.95c1.02,0,1.92.49,2.47,1.35.55.86.62,1.88.18,2.81l-36.47,78.15c-.48,1.03-1.52,1.69-2.65,1.69h-166.92c-1.02,0-1.92-.49-2.47-1.35-.55-.86-.62-1.88-.18-2.81l36.47-78.15c.48-1.03,1.52-1.69,2.65-1.69h166.92m0-3h-166.92c-2.3,0-4.4,1.33-5.37,3.42l-36.47,78.15c-1.83,3.93,1.03,8.43,5.37,8.43h166.92c2.3,0,4.4-1.33,5.37-3.42l36.47-78.15c1.83-3.93-1.03-8.43-5.37-8.43h0Z"/>
    </g>
    <g>
      <path class="cls-6" d="m322.62,122.49h-165.87c-4.31,0-7.16-4.48-5.34-8.38l30.51-65.39h178.86l-32.84,70.37c-.97,2.07-3.05,3.4-5.34,3.4Z"/>
      <path class="cls-4" d="m202.32,122.49c0-13.33,20.18-78.5,148.14-55.27-.09-.08-3.43,7.34-6.94,14.79-17.33-2.33-71.37-4.14-72.69,40.6-5.4-.26-63.85-.12-68.51-.12Z"/>
      <g>
        <path class="cls-1" d="m190.08,122.61c.03-2.33.28-4.6.65-6.84l4.77.75c-.29,2.04-.45,4.1-.43,6.1h-5Z"/>
        <path class="cls-1" d="m194.84,101.98c1.88-4.4,4.25-8.58,7.03-12.46l3.37,2.36c-2.51,3.7-4.62,7.67-6.27,11.81l-4.13-1.71Z"/>
        <path class="cls-1" d="m211.35,78.89c3.51-3.2,7.33-6.03,11.36-8.49l1.8,2.88c-3.8,2.45-7.36,5.24-10.6,8.35l-2.56-2.74Z"/>
        <path class="cls-1" d="m235.35,64.1c4.36-1.75,8.84-3.18,13.37-4.32l.69,2.59c-4.4,1.23-8.71,2.73-12.89,4.53l-1.17-2.8Z"/>
        <path class="cls-1" d="m262.46,57.15c4.62-.63,9.26-1.03,13.9-1.25l.12,1.96c-4.58.33-9.15.85-13.67,1.58l-.34-2.29Z"/>
        <polygon class="cls-1" points="290.29 55.79 304.17 56.61 304.08 57.85 290.26 57.39 290.29 55.79"/>
        <polygon class="cls-1" points="317.97 58.21 331.66 60.46 331.57 60.98 317.85 59.09 317.97 58.21"/>
        <polygon class="cls-1" points="345.29 63.27 351.62 64.75 345.25 63.43 345.29 63.27"/>
      </g>
      <g>
        <path class="cls-1" d="m277.32,122.55c.07-2.32.34-4.61.81-6.87l4.53.82c-.29,2.01-.41,4.04-.34,6.05h-5Z"/>
        <path class="cls-1" d="m283.95,102.33c2.85-3.96,6.58-7.2,10.68-9.63l1.56,2.47c-3.66,2.48-6.82,5.62-9.13,9.28l-3.11-2.11Z"/>
        <path class="cls-1" d="m307.73,87.46c4.54-1.13,9.16-1.75,13.78-2.03l.11,1.23c-4.53.56-9.02,1.44-13.33,2.8l-.56-2Z"/>
        <polygon class="cls-1" points="335.36 85.48 341.85 86.01 335.35 85.88 335.36 85.48"/>
      </g>
      <g>
        <path class="cls-1" d="m230.78,122.55c.04-2.35.34-4.66.81-6.91l4.68.9c-.35,2-.52,4.02-.49,6.01h-5Z"/>
        <path class="cls-1" d="m236.9,102.02c2.44-4.2,5.48-8.02,8.93-11.38l2.67,2.65c-3.1,3.25-5.78,6.88-7.87,10.8l-3.72-2.08Z"/>
        <path class="cls-1" d="m257.23,81.96c4.1-2.43,8.44-4.42,12.89-6.01l.97,2.57c-4.25,1.7-8.34,3.75-12.15,6.21l-1.71-2.77Z"/>
        <path class="cls-1" d="m283.77,72.25c4.62-.9,9.28-1.48,13.95-1.82l.16,1.74c-4.59.5-9.16,1.25-13.64,2.28l-.47-2.2Z"/>
        <path class="cls-1" d="m311.74,70.09c4.67.1,9.33.4,13.97.85l-.06.74c-4.64-.28-9.28-.41-13.91-.34v-1.24Z"/>
        <polygon class="cls-1" points="339.57 72.75 345.98 73.86 339.54 72.98 339.57 72.75"/>
      </g>
      <path class="cls-4" d="m358.32,37.63c1.02,0,1.92.49,2.47,1.35.55.86.62,1.88.18,2.81l-36.47,78.15c-.48,1.03-1.52,1.69-2.65,1.69h-166.92c-1.02,0-1.92-.49-2.47-1.35-.55-.86-.62-1.88-.18-2.81l36.47-78.15c.48-1.03,1.52-1.69,2.65-1.69h166.92m0-3h-166.92c-2.3,0-4.4,1.33-5.37,3.42l-36.47,78.15c-1.83,3.93,1.03,8.43,5.37,8.43h166.92c2.3,0,4.4-1.33,5.37-3.42l36.47-78.15c1.83-3.93-1.03-8.43-5.37-8.43h0Z"/>
    </g>
    <g>
      <path class="cls-6" d="m322.62,105.17h-165.87c-4.31,0-7.16-4.48-5.34-8.38l30.51-65.39h178.86l-32.84,70.37c-.97,2.07-3.05,3.4-5.34,3.4Z"/>
      <path class="cls-4" d="m202.32,105.17c0-13.33,20.18-78.5,148.14-55.27-.09-.08-3.43,7.34-6.94,14.79-17.33-2.33-71.37-4.14-72.69,40.6-5.4-.26-63.85-.12-68.51-.12Z"/>
      <g>
        <path class="cls-1" d="m190.08,105.29c.03-2.33.28-4.6.65-6.84l4.77.75c-.29,2.04-.45,4.1-.43,6.1h-5Z"/>
        <path class="cls-1" d="m194.84,84.67c1.88-4.4,4.25-8.58,7.03-12.46l3.37,2.36c-2.51,3.7-4.62,7.67-6.27,11.81l-4.13-1.71Z"/>
        <path class="cls-1" d="m211.35,61.57c3.51-3.2,7.33-6.03,11.36-8.49l1.8,2.88c-3.8,2.45-7.36,5.24-10.6,8.35l-2.56-2.74Z"/>
        <path class="cls-1" d="m235.35,46.78c4.36-1.75,8.84-3.18,13.37-4.32l.69,2.59c-4.4,1.23-8.71,2.73-12.89,4.53l-1.17-2.8Z"/>
        <path class="cls-1" d="m262.46,39.83c4.62-.63,9.26-1.03,13.9-1.25l.12,1.96c-4.58.33-9.15.85-13.67,1.58l-.34-2.29Z"/>
        <polygon class="cls-1" points="290.29 38.47 304.17 39.29 304.08 40.54 290.26 40.08 290.29 38.47"/>
        <polygon class="cls-1" points="317.97 40.89 331.66 43.14 331.57 43.66 317.85 41.77 317.97 40.89"/>
        <polygon class="cls-1" points="345.29 45.95 351.62 47.43 345.25 46.12 345.29 45.95"/>
      </g>
      <g>
        <path class="cls-1" d="m277.32,105.23c.07-2.32.34-4.61.81-6.87l4.53.82c-.29,2.01-.41,4.04-.34,6.05h-5Z"/>
        <path class="cls-1" d="m283.95,85.01c2.85-3.96,6.58-7.2,10.68-9.63l1.56,2.47c-3.66,2.48-6.82,5.62-9.13,9.28l-3.11-2.11Z"/>
        <path class="cls-1" d="m307.73,70.15c4.54-1.13,9.16-1.75,13.78-2.03l.11,1.23c-4.53.56-9.02,1.44-13.33,2.8l-.56-2Z"/>
        <polygon class="cls-1" points="335.36 68.16 341.85 68.7 335.35 68.56 335.36 68.16"/>
      </g>
      <g>
        <path class="cls-1" d="m230.78,105.23c.04-2.35.34-4.66.81-6.91l4.68.9c-.35,2-.52,4.02-.49,6.01h-5Z"/>
        <path class="cls-1" d="m236.9,84.71c2.44-4.2,5.48-8.02,8.93-11.38l2.67,2.65c-3.1,3.25-5.78,6.88-7.87,10.8l-3.72-2.08Z"/>
        <path class="cls-1" d="m257.23,64.65c4.1-2.43,8.44-4.42,12.89-6.01l.97,2.57c-4.25,1.7-8.34,3.75-12.15,6.21l-1.71-2.77Z"/>
        <path class="cls-1" d="m283.77,54.94c4.62-.9,9.28-1.48,13.95-1.82l.16,1.74c-4.59.5-9.16,1.25-13.64,2.28l-.47-2.2Z"/>
        <path class="cls-1" d="m311.74,52.78c4.67.1,9.33.4,13.97.85l-.06.74c-4.64-.28-9.28-.41-13.91-.34v-1.24Z"/>
        <polygon class="cls-1" points="339.57 55.43 345.98 56.54 339.54 55.66 339.57 55.43"/>
      </g>
      <path class="cls-4" d="m358.32,20.32c1.02,0,1.92.49,2.47,1.35.55.86.62,1.88.18,2.81l-36.47,78.15c-.48,1.03-1.52,1.69-2.65,1.69h-166.92c-1.02,0-1.92-.49-2.47-1.35-.55-.86-.62-1.88-.18-2.81l36.47-78.15c.48-1.03,1.52-1.69,2.65-1.69h166.92m0-3h-166.92c-2.3,0-4.4,1.33-5.37,3.42l-36.47,78.15c-1.83,3.93,1.03,8.43,5.37,8.43h166.92c2.3,0,4.4-1.33,5.37-3.42l36.47-78.15c1.83-3.93-1.03-8.43-5.37-8.43h0Z"/>
    </g>
    <g>
      <g>
        <path class="cls-6" d="m319.18,89.75h-165.87c-4.31,0-7.16-4.48-5.34-8.38l30.51-65.39h178.86l-32.84,70.37c-.97,2.07-3.05,3.4-5.34,3.4Z"/>
        <path class="cls-4" d="m290.44,89.75c.16-15.75-16.84-83.75-118.84-58.75.09-.08-6,11-8,17,31-2,57,1,58.33,41.87,5.4-.26,63.85-.12,68.51-.12Z"/>
        <g>
          <polygon class="cls-1" points="293.6 89.51 293.39 83.24 298.17 82.79 298.6 89.49 293.6 89.51"/>
          <path class="cls-1" d="m291.15,70.39c-1.16-4.2-2.74-8.28-4.74-12.15l3.49-1.87c2.25,4.06,4.07,8.36,5.45,12.79l-4.2,1.24Z"/>
          <path class="cls-1" d="m279.19,47.36c-2.8-3.35-5.99-6.39-9.47-9.05l1.86-2.51c3.75,2.69,7.21,5.79,10.3,9.25l-2.68,2.32Z"/>
          <path class="cls-1" d="m258.48,31.41c-3.97-1.93-8.14-3.49-12.4-4.72l.6-2.21c4.42,1.13,8.76,2.61,12.95,4.48l-1.14,2.46Z"/>
          <path class="cls-1" d="m233.02,23.9c-4.42-.64-8.88-1.01-13.35-1.16l.03-1.45c4.52.02,9.05.25,13.56.76l-.24,1.86Z"/>
          <path class="cls-1" d="m206.23,22.9c-4.48.24-8.95.66-13.41,1.22l-.09-.61c4.45-.7,8.93-1.26,13.43-1.65l.07,1.03Z"/>
          <polygon class="cls-1" points="179.47 26.22 173.1 27.5 179.43 26.03 179.47 26.22"/>
        </g>
        <g>
          <polygon class="cls-1" points="210.44 89.81 210.59 83.42 215.16 83.21 215.44 89.81 210.44 89.81"/>
          <path class="cls-1" d="m208.76,71.71c-1.29-3.7-3.43-7.09-6.34-9.78l1.91-2.2c3.44,2.79,6.18,6.51,7.92,10.62l-3.49,1.36Z"/>
          <path class="cls-1" d="m192.11,55.78c-3.84-1.43-7.91-2.3-12.03-2.83l.12-1.25c4.22.27,8.45.88,12.57,2.11l-.66,1.98Z"/>
          <polygon class="cls-1" points="167.59 52.27 161.1 52.5 167.57 51.84 167.59 52.27"/>
        </g>
        <g>
          <polygon class="cls-1" points="256.99 89.81 257.03 83.39 261.77 83.23 261.99 89.81 256.99 89.81"/>
          <path class="cls-1" d="m255.95,71.36c-.74-3.93-1.93-7.76-3.7-11.3l3.31-1.75c2.12,3.82,3.58,7.97,4.55,12.18l-4.15.87Z"/>
          <path class="cls-1" d="m245.22,50.54c-2.87-2.76-6.23-5.03-9.84-6.85l1.19-2.48c3.89,1.77,7.6,4.06,10.85,6.94l-2.2,2.39Z"/>
          <path class="cls-1" d="m223.95,39.45c-3.96-1.04-8.03-1.75-12.13-2.23l.17-1.75c4.18.32,8.36.88,12.49,1.79l-.53,2.19Z"/>
          <path class="cls-1" d="m199.44,36.43c-4.14-.07-8.29.03-12.44.25l-.06-.76c4.15-.39,8.32-.66,12.49-.75v1.26Z"/>
          <polygon class="cls-1" points="174.55 37.71 168.1 38.5 174.52 37.46 174.55 37.71"/>
        </g>
      </g>
      <path class="cls-4" d="m356.32,3c1.02,0,1.92.49,2.47,1.35.55.86.62,1.88.18,2.81l-36.47,78.15c-.48,1.03-1.52,1.69-2.65,1.69h-166.92c-1.02,0-1.92-.49-2.47-1.35-.55-.86-.62-1.88-.18-2.81L186.75,4.69c.48-1.03,1.52-1.69,2.65-1.69h166.92m0-3h-166.92c-2.3,0-4.4,1.33-5.37,3.42l-36.47,78.15c-1.83,3.93,1.03,8.43,5.37,8.43h166.92c2.3,0,4.4-1.33,5.37-3.42l36.47-78.15c1.83-3.93-1.03-8.43-5.37-8.43h0Z"/>
    </g>
  </g>
  <text class="cls-3" transform="translate(133.66 255.25)"><tspan x="0" y="0">80%</tspan></text>
  <text class="cls-2" transform="translate(291.89 254.07)"><tspan x="0" y="0">20%</tspan></text>
</svg>