<?xml version="1.0" encoding="UTF-8"?>
<svg xmlns="http://www.w3.org/2000/svg" viewBox="0 0 274.82 230.5">
  <defs>
    <style>
      .cls-1 {
        fill: #fff;
      }

      .cls-2 {
        fill: #fafeff;
      }

      .cls-3 {
        fill: #9ecaef;
      }

      .cls-4 {
        fill: #595355;
      }

      .cls-5 {
        fill: #b2b2b2;
      }

      .cls-6 {
        fill: #4d4d4d;
      }

      .cls-7 {
        font-family: MyriadPro-Regular, 'Myriad Pro';
        font-size: 12px;
      }

      .cls-8 {
        fill: #71ccae;
      }

      .cls-9 {
        fill: #ff7bac;
      }

      .cls-10 {
        fill: #20ff00;
      }

      .cls-11 {
        stroke: #00ff0c;
        stroke-width: 2px;
      }

      .cls-11, .cls-12, .cls-13 {
        fill: none;
        stroke-miterlimit: 10;
      }

      .cls-14 {
        fill: #ef7825;
      }

      .cls-12 {
        stroke: #4d4d4d;
        stroke-width: 3px;
      }

      .cls-13 {
        stroke: #fff;
        stroke-width: 4px;
      }
    </style>
  </defs>
  <g id="Calque_2" data-name="Calque 2">
    <g>
      <path class="cls-8" d="m94.73,59.64h179.5v60.27c0,10.06-8.17,18.23-18.23,18.23H113.77c-10.51,0-19.05-8.54-19.05-19.05v-59.45h0Z"/>
      <g>
        <polygon class="cls-1" points="237.23 137.23 141.96 137.23 171.49 59.04 207.69 59.04 237.23 137.23"/>
        <g>
          <path class="cls-4" d="m191.49,59.04c.09,2.17.18,4.34.26,6.51h-4.27c.09-2.17.18-4.34.26-6.51h-10.4c-6.97,26.17-13.94,52.33-20.91,78.5h28.12c.09-2.17.18-4.34.26-6.51h9.6c.09,2.17.18,4.34.26,6.51h28.12c-6.97-26.17-13.94-52.33-20.91-78.5-3.47,0-6.93,0-10.4,0Zm-4.41,16.26c1.69,0,3.38,0,5.07,0,.25,6.04.49,12.07.74,18.11h-6.54c.25-6.04.49-12.07.74-18.11Zm-1.87,45.97c.25-6.04.49-12.07.74-18.11,2.44,0,4.89,0,7.33,0,.25,6.04.49,12.07.74,18.11h-8.8Z"/>
          <path class="cls-4" d="m208.7,59.04h-3.54c8.83,26.17,17.66,52.33,26.49,78.5h9.57c-10.84-26.17-21.68-52.33-32.52-78.5Z"/>
          <path class="cls-4" d="m170.52,59.04c-10.84,26.17-21.68,52.33-32.52,78.5h9.57c8.83-26.17,17.66-52.33,26.49-78.5-1.42,0-2.12,0-3.54,0Z"/>
        </g>
      </g>
      <rect class="cls-11" x="95.17" y="29.14" width="178.66" height="109" rx="17.93" ry="17.93"/>
    </g>
  </g>
  <g id="Calque_1" data-name="Calque 1">
    <g>
      <path class="cls-13" d="m151.5,142.5h-29.53v-10h1.04c9.78,0,17.71-7.93,17.71-17.71v-5.33c6.41-.39,11.5-5.7,11.5-12.22v-17.49c0-6.51-5.09-11.82-11.5-12.22v-5.33c0-9.78-7.93-17.71-17.71-17.71h-14.81c-1.73-4.67-6.21-8-11.48-8h-17.49c-5.27,0-9.75,3.33-11.48,8h-15.31c-9.78,0-17.71,7.93-17.71,17.71v5.33c-6.41.39-11.5,5.7-11.5,12.22v17.49c0,6.51,5.09,11.82,11.5,12.22v5.33c0,9.78,7.93,17.71,17.71,17.71h1.54v10h-29.47c-9.1,0-16.47,8.71-16.47,19.46v66.54h159.94v-66.54c0-10.75-7.37-19.46-16.47-19.46Z"/>
      <circle class="cls-13" cx="88.47" cy="14" r="12"/>
    </g>
    <rect class="cls-6" x="66.26" y="37.6" width="43.92" height="42" rx="12.25" ry="12.25" transform="translate(146.83 -29.63) rotate(90)"/>
    <rect class="cls-6" x="23.48" y="67.64" width="129" height="42" rx="12.25" ry="12.25"/>
    <rect class="cls-5" x="54.23" y="127.64" width="68" height="24"/>
    <path class="cls-3" d="m8.28,228.64v-66.54c0-10.75,7.37-19.46,16.47-19.46h127c9.1,0,16.47,8.71,16.47,19.46v66.54"/>
    <g>
      <rect class="cls-3" x="34.98" y="44.64" width="106" height="88" rx="17.71" ry="17.71"/>
      <path class="cls-2" d="m131.98,88.48c0-10.23-7.9-18.52-17.63-18.52-.35,0-.7.01-1.05.04-2.77-8.88-10.72-15.3-20.1-15.3-7.1,0-13.38,3.68-17.22,9.32-1.63-1.23-3.62-1.96-5.77-1.96-5.47,0-9.9,4.65-9.9,10.4,0,.02,0,.04,0,.06-9.13.7-16.33,8.7-16.33,18.46s7.9,18.52,17.63,18.52c3.23,0,6.26-.92,8.87-2.51,1.47,8.9,8.86,15.66,17.75,15.66,6.25,0,11.76-3.34,14.99-8.42,1.52.99,3.3,1.57,5.22,1.57,5.1,0,9.3-4.06,9.84-9.26,7.85-1.88,13.7-9.24,13.7-18.05Z"/>
    </g>
    <text class="cls-7" transform="translate(64.23 86.67)"><tspan class="cls-14"><tspan x="0" y="0">v = 2.1 m/s</tspan></tspan><tspan class="cls-10"><tspan x="0" y="14.4">θ = 32°</tspan></tspan></text>
    <path class="cls-6" d="m5.85,40.4c-1.8-1.8-3.23-3.91-4.28-6.33s-1.58-5.03-1.58-7.83.53-5.41,1.58-7.83,2.48-4.53,4.28-6.33l2.15,2.15c-1.53,1.53-2.75,3.33-3.65,5.38s-1.35,4.26-1.35,6.63.44,4.57,1.33,6.6,2.11,3.83,3.68,5.4l-2.15,2.15Zm5.65-5.65c-1.07-1.07-1.92-2.33-2.55-3.78-.63-1.45-.95-3.03-.95-4.73s.32-3.28.95-4.73c.63-1.45,1.48-2.71,2.55-3.78l2.15,2.15c-.8.8-1.44,1.74-1.93,2.83-.48,1.08-.73,2.26-.73,3.53s.23,2.43.7,3.5,1.12,2.02,1.95,2.85l-2.15,2.15Zm8.5-4.5c-1.1,0-2.04-.39-2.83-1.18s-1.18-1.73-1.18-2.83.39-2.04,1.18-2.83c.78-.78,1.73-1.18,2.83-1.18s2.04.39,2.83,1.18c.78.78,1.18,1.73,1.18,2.83s-.39,2.04-1.18,2.83-1.73,1.18-2.83,1.18Zm8.5,4.5l-2.15-2.15c.8-.8,1.44-1.74,1.93-2.83s.73-2.26.73-3.53-.23-2.43-.7-3.5c-.47-1.07-1.12-2.02-1.95-2.85l2.15-2.15c1.07,1.07,1.92,2.33,2.55,3.78s.95,3.03.95,4.73-.32,3.23-.95,4.68-1.48,2.73-2.55,3.83Zm5.65,5.65l-2.15-2.15c1.53-1.53,2.75-3.33,3.65-5.38s1.35-4.26,1.35-6.63-.44-4.57-1.33-6.6-2.11-3.83-3.68-5.4l2.15-2.15c1.8,1.83,3.23,3.96,4.28,6.38s1.58,5.01,1.58,7.78-.53,5.36-1.58,7.78-2.48,4.54-4.28,6.38Z"/>
    <line class="cls-12" x1="88.73" y1="41.64" x2="88.73" y2="19.64"/>
    <circle class="cls-9" cx="88.73" cy="14.14" r="12"/>
  </g>
</svg>