<?xml version="1.0" encoding="UTF-8"?>
<svg id="Calque_1" data-name="Calque 1" xmlns="http://www.w3.org/2000/svg" viewBox="0 0 250.94 497.58">
  <defs>
    <style>
      .cls-1, .cls-2 {
        fill: #fff;
      }

      .cls-3 {
        fill: #9ecaef;
      }

      .cls-4 {
        font-size: 77px;
      }

      .cls-4, .cls-5, .cls-6, .cls-7 {
        fill: #4d4d4d;
      }

      .cls-4, .cls-6, .cls-7 {
        font-family: Roboto-Regular, Roboto;
      }

      .cls-8 {
        fill: #b2b2b2;
      }

      .cls-9 {
        fill: #71ccae;
      }

      .cls-10 {
        fill: #ff7bac;
      }

      .cls-11 {
        fill: #ff5a45;
      }

      .cls-6 {
        font-size: 32.01px;
      }

      .cls-12, .cls-13, .cls-14 {
        fill: none;
      }

      .cls-12, .cls-13, .cls-14, .cls-2 {
        stroke-miterlimit: 10;
      }

      .cls-12, .cls-13, .cls-2 {
        stroke: #4d4d4d;
      }

      .cls-12, .cls-14, .cls-2 {
        stroke-width: 4px;
      }

      .cls-13 {
        stroke-width: 3px;
      }

      .cls-14 {
        stroke: #fff;
      }

      .cls-7 {
        font-size: 105.92px;
      }
    </style>
  </defs>
  <g>
    <path class="cls-14" d="m229.59,244.22h-29.53v-10h1.04c9.78,0,17.71-7.93,17.71-17.71v-5.33c6.41-.39,11.5-5.7,11.5-12.22v-17.49c0-6.51-5.09-11.82-11.5-12.22v-5.33c0-9.78-7.93-17.71-17.71-17.71h-14.81c-1.73-4.67-6.21-8-11.48-8h-17.49c-5.27,0-9.75,3.33-11.48,8h-15.31c-9.78,0-17.71,7.93-17.71,17.71v5.33c-6.41.39-11.5,5.7-11.5,12.22v17.49c0,6.51,5.09,11.82,11.5,12.22v5.33c0,9.78,7.93,17.71,17.71,17.71h1.54v10h-29.47c-9.1,0-16.47,8.71-16.47,19.46v66.54h159.94v-66.54c0-10.75-7.37-19.46-16.47-19.46Z"/>
    <circle class="cls-14" cx="166.56" cy="115.72" r="12"/>
  </g>
  <rect class="cls-5" x="144.35" y="139.32" width="43.92" height="42" rx="12.25" ry="12.25" transform="translate(326.63 -6) rotate(90)"/>
  <rect class="cls-5" x="101.56" y="169.35" width="129" height="42" rx="12.25" ry="12.25"/>
  <rect class="cls-8" x="132.31" y="229.35" width="68" height="24"/>
  <path class="cls-3" d="m86.37,330.35v-66.54c0-10.75,7.37-19.46,16.47-19.46h127c9.1,0,16.47,8.71,16.47,19.46v66.54"/>
  <rect class="cls-3" x="113.06" y="146.35" width="106" height="88" rx="17.71" ry="17.71"/>
  <line class="cls-13" x1="166.81" y1="143.35" x2="166.81" y2="121.35"/>
  <circle class="cls-10" cx="166.81" cy="115.85" r="12"/>
  <g>
    <path class="cls-1" d="m17.81,430.44h166.92c2.3,0,4.4-1.33,5.37-3.42l36.47-78.15c1.83-3.93-1.03-8.43-5.37-8.43H54.27c-2.3,0-4.4,1.33-5.37,3.42l-36.47,78.15c-1.83,3.93,1.03,8.43,5.37,8.43Z"/>
    <g>
      <path class="cls-9" d="m53.51,342.09h165.87c4.31,0,7.16,4.48,5.34,8.38l-30.51,65.39H15.33l32.84-70.37c.97-2.07,3.05-3.4,5.34-3.4Z"/>
      <path class="cls-5" d="m173.8,342.09c0,13.33-20.18,78.5-148.14,55.27.09.08,3.43-7.34,6.94-14.79,17.33,2.33,71.37,4.14,72.69-40.6,5.4.26,63.85.12,68.51.12Z"/>
      <g>
        <path class="cls-1" d="m186.04,341.97c-.03,2.33-.28,4.6-.65,6.84l-4.77-.75c.29-2.04.45-4.1.43-6.1h5Z"/>
        <path class="cls-1" d="m181.29,362.59c-1.88,4.4-4.25,8.58-7.03,12.46l-3.37-2.36c2.51-3.7,4.62-7.67,6.27-11.81l4.13,1.71Z"/>
        <path class="cls-1" d="m164.78,385.69c-3.51,3.2-7.33,6.03-11.36,8.49l-1.8-2.88c3.8-2.45,7.36-5.24,10.6-8.35l2.56,2.74Z"/>
        <path class="cls-1" d="m140.78,400.47c-4.36,1.75-8.84,3.18-13.37,4.32l-.69-2.59c4.4-1.23,8.71-2.73,12.89-4.53l1.17,2.8Z"/>
        <path class="cls-1" d="m113.67,407.43c-4.62.63-9.26,1.03-13.9,1.25l-.12-1.96c4.58-.33,9.15-.85,13.67-1.58l.34,2.29Z"/>
        <polygon class="cls-1" points="85.84 408.79 71.96 407.96 72.05 406.72 85.86 407.18 85.84 408.79"/>
        <polygon class="cls-1" points="58.16 406.37 44.46 404.12 44.55 403.6 58.27 405.49 58.16 406.37"/>
        <polygon class="cls-1" points="30.84 401.31 24.51 399.82 30.88 401.14 30.84 401.31"/>
      </g>
      <g>
        <path class="cls-1" d="m98.8,342.03c-.07,2.32-.34,4.61-.81,6.87l-4.53-.82c.29-2.01.41-4.04.34-6.05h5Z"/>
        <path class="cls-1" d="m92.17,362.25c-2.85,3.96-6.58,7.2-10.68,9.63l-1.56-2.47c3.66-2.48,6.82-5.62,9.13-9.28l3.11,2.11Z"/>
        <path class="cls-1" d="m68.39,377.11c-4.54,1.13-9.16,1.75-13.78,2.03l-.11-1.23c4.53-.56,9.02-1.44,13.33-2.8l.56,2Z"/>
        <polygon class="cls-1" points="40.77 379.1 34.28 378.56 40.78 378.7 40.77 379.1"/>
      </g>
      <g>
        <path class="cls-1" d="m145.35,342.03c-.04,2.35-.34,4.66-.81,6.91l-4.68-.9c.35-2,.52-4.02.49-6.01h5Z"/>
        <path class="cls-1" d="m139.23,362.55c-2.44,4.2-5.48,8.02-8.93,11.38l-2.67-2.65c3.1-3.25,5.78-6.88,7.87-10.8l3.72,2.08Z"/>
        <path class="cls-1" d="m118.9,382.61c-4.1,2.43-8.44,4.42-12.89,6.01l-.97-2.57c4.25-1.7,8.34-3.75,12.15-6.21l1.71,2.77Z"/>
        <path class="cls-1" d="m92.36,392.32c-4.62.9-9.28,1.48-13.95,1.82l-.16-1.74c4.59-.5,9.16-1.25,13.64-2.28l.47,2.2Z"/>
        <path class="cls-1" d="m64.39,394.48c-4.67-.1-9.33-.4-13.97-.85l.06-.74c4.64.28,9.28.41,13.91.34v1.24Z"/>
        <polygon class="cls-1" points="36.55 391.83 30.14 390.71 36.59 391.6 36.55 391.83"/>
      </g>
      <path class="cls-11" d="m221.19,342.94c1.02,0,1.92.49,2.47,1.35.55.86.62,1.89.18,2.81l-36.47,78.15c-.48,1.03-1.52,1.69-2.65,1.69H17.81c-1.02,0-1.92-.49-2.47-1.35-.55-.86-.62-1.89-.18-2.81l36.47-78.15c.48-1.03,1.52-1.69,2.65-1.69h166.92m0-3H54.27c-2.3,0-4.4,1.33-5.37,3.42l-36.47,78.15c-1.83,3.93,1.03,8.43,5.37,8.43h166.92c2.3,0,4.4-1.33,5.37-3.42l36.47-78.15c1.83-3.93-1.03-8.43-5.37-8.43h0Z"/>
    </g>
  </g>
  <circle class="cls-5" cx="139" cy="174.94" r="6"/>
  <circle class="cls-5" cx="187" cy="174.94" r="6"/>
  <g>
    <path class="cls-2" d="m42.59,466.94H10.11c-2.83,0-4.68-2.95-3.46-5.5l9.3-19.33c.64-1.33,1.98-2.17,3.46-2.17h32.48c2.83,0,4.68,2.95,3.46,5.5l-9.3,19.33c-.64,1.33-1.98,2.17-3.46,2.17Z"/>
    <path class="cls-2" d="m160.59,466.94h-32.48c-2.83,0-4.68-2.95-3.46-5.5l9.3-19.33c.64-1.33,1.98-2.17,3.46-2.17h32.48c2.83,0,4.68,2.95,3.46,5.5l-9.3,19.33c-.64,1.33-1.98,2.17-3.46,2.17Z"/>
    <path class="cls-2" d="m101.59,466.94h-32.48c-2.83,0-4.68-2.95-3.46-5.5l9.3-19.33c.64-1.33,1.98-2.17,3.46-2.17h32.48c2.83,0,4.68,2.95,3.46,5.5l-9.3,19.33c-.64,1.33-1.98,2.17-3.46,2.17Z"/>
    <g>
      <line class="cls-12" x1="79.13" y1="483.12" x2="82.73" y2="476.19"/>
      <polygon class="cls-5" points="85.56 482.35 71.61 497.58 76.07 477.42 85.56 482.35"/>
    </g>
    <g>
      <line class="cls-12" x1="137.7" y1="482.94" x2="123" y2="482.94"/>
      <polygon class="cls-5" points="134.05 477.6 154 482.94 134.05 488.29 134.05 477.6"/>
    </g>
    <g>
      <line class="cls-12" x1="16.3" y1="482.94" x2="31" y2="482.94"/>
      <polygon class="cls-5" points="19.95 488.29 0 482.94 19.95 477.6 19.95 488.29"/>
    </g>
    <line class="cls-12" x1="21" y1="444.94" x2="38" y2="460.94"/>
    <line class="cls-12" x1="40" y1="445.94" x2="14" y2="460.94"/>
  </g>
  <text class="cls-4" transform="translate(193.91 120.2) rotate(20.39)"><tspan x="0" y="0">?</tspan></text>
  <text class="cls-6" transform="translate(119.83 131.77) rotate(-57.2)"><tspan x="0" y="0">?</tspan></text>
  <text class="cls-7" transform="translate(127.99 103.13) rotate(-24.09)"><tspan x="0" y="0">?</tspan></text>
</svg>