<?xml version="1.0" encoding="UTF-8"?><svg id="Calque_1" xmlns="http://www.w3.org/2000/svg" viewBox="0 0 765.5 483.57"><defs><style>.cls-1{fill:#b22234;}.cls-2{fill:#fff;}.cls-3{fill:#3d3d3d;}.cls-4{fill:#3c3b6e;}.cls-5{fill:#e2e2e2;}.cls-6{fill:#3185ff;}.cls-7{fill:#e9ff8d;}.cls-8{fill:#282828;}.cls-9{fill:#207300;}.cls-10{fill:#dd76da;}.cls-11{font-family:CascadiaCode-Regular, 'Cascadia Code';font-size:16px;font-variation-settings:'wght' 400;}.cls-11,.cls-12{fill:#353535;}.cls-13{fill:#de9ae5;}.cls-14{fill:#878787;}.cls-15{fill:#ff1717;}.cls-16{fill:#64abff;}.cls-17{fill:#2d2d2d;}.cls-18{fill:#ccc;}.cls-19{fill:#666;}</style></defs><g><rect class="cls-19" x="58.61" y="384.83" width="47.95" height="13.51" rx="6.76" ry="6.76" transform="translate(10.07 -1.99) rotate(1.47)"/><path class="cls-15" d="m105.01,424.74c-2.17-5.33-1.57-21.92,3.22-30.77,1.68-3.11,3.72-4.92,6.05-5.38,2.29-.44,5.15,1.38,7.12,4.55,3.01,4.85,3.97,13-2.37,21.33l-1.22-.93c5.87-7.71,5.03-15.17,2.29-19.58-1.58-2.55-3.91-4.17-5.52-3.85-1.86.36-3.53,1.91-4.99,4.6-4.46,8.23-5.21,24.38-3.15,29.45l-1.42.58Z"/><path d="m104.04,424.48l-1.91-.18c.11-1.21,2.94-29.68,14.35-36.48,3.02-1.8,6.37-1.94,9.95-.43,3.24,1.37,5.27,3.54,6.05,6.45,1.52,5.67-1.78,13.93-9.8,24.55l-1.53-1.16c7.54-9.98,10.81-17.89,9.48-22.89-.63-2.34-2.24-4.03-4.94-5.18-3.02-1.28-5.71-1.18-8.21.31-10.57,6.3-13.39,34.72-13.42,35.01Z"/><path class="cls-17" d="m170.81,323.66l4.45,2.75h0c.29-.55,1.04-.65,1.47-.2l2.29,2.41c.39.41.44,1.04.11,1.5-1.26,1.8-4.38,5.99-5.99,5.73-8.4-1.31-2.33-12.21-2.33-12.21Z"/><rect class="cls-3" x="58.93" y="422.54" width="114.43" height="24.7" transform="translate(11.2 -2.84) rotate(1.47)"/><rect x="114.46" y="413.72" width="28.77" height="9.69" rx="4.85" ry="4.85" transform="translate(10.78 -3.17) rotate(1.47)"/><path class="cls-8" d="m39.05,398.67s1.26-3.89,2.01-4.66c.66-.68,1.52-.42,2.5-.07.3-.21.74-.31,1.39-.28.56.03,1.19.01,1.87-.02l1.78-9.99,6.06,1.75-2.5,8.23c.93.17,1.65.51,1.97,1.16.55-.19,1.28.05,2.12.5.44.24.71.72.68,1.22l-.09,1.71c-.04.71-.63,1.26-1.34,1.24l-1.42-.04v.2s-11.63-.18-11.15-1.73c.02-.05.03-.1.04-.15l-.28,1.02-3.63-.09Z"/><path class="cls-8" d="m188.55,397.22s-1.06-3.95-1.77-4.76c-.62-.71-1.49-.49-2.5-.2-.29-.22-.72-.35-1.37-.35-.56,0-1.19-.05-1.86-.12l-1.26-10.06-6.14,1.44,2.08,8.35c-.94.12-1.68.43-2.03,1.06-.54-.21-1.28-.02-2.15.39-.45.22-.74.68-.74,1.19v1.71c0,.71.57,1.29,1.28,1.31l1.42.04v.2s11.61.41,11.21-1.16c-.01-.05-.02-.1-.03-.16l.23,1.03,3.63.09Z"/><g><rect class="cls-8" x="38.09" y="401.47" width="5.03" height="19.45" transform="translate(61.35 -1.48) rotate(8.52)"/><path d="m43.3,421.62l-.69-1.37c-.23.12-.38.37-.39.64,0,.31.18.53.3.59-.29-.16-1.89-.56-3.06-.85-3.73-.94-4.18-1.11-4.38-1.68-.09-.25-.05-.53.11-.74.3-.42.74-.52,3.42-.53-2.69-.7-3.13-.91-3.26-1.5-.05-.24.01-.5.17-.69.34-.41.75-.46,3.76-.39-2.75-.74-3.18-.91-3.35-1.46-.08-.25-.03-.53.13-.73.29-.38.67-.47,2.94-.42-2.2-.58-2.43-.69-2.65-.96l-.3-.38.2-.47c.24-.49.47-.59,3.19-.6-1.65-.43-2.49-.69-2.84-.96-.31-.24-.44-.61-.32-.96.23-.65.69-.74,3.82-.66-.82-.21-1.69-.42-2.52-.62l-.09-.02-.08-.04c-.67-.35-.59-.88-.55-1.04.17-.66.6-.84,3.56-.85-1.72-.44-2.57-.68-2.9-.88-.4-.24-.49-.65-.4-.95.19-.65.28-.94,8.66-.51l-.08,1.54c-.89-.05-1.81-.09-2.69-.12,3.08.79,3.43.97,3.36,1.71-.02.17-.13.71-.94.76-.53.03-1.54.02-2.7,0-.12,0-.25,0-.39,0,3.42.93,3.42,1.25,3.41,1.76,0,.3-.19.69-.7.8-.46.1-1.55.08-3.27.03,3.29.82,3.56.91,3.59,1.62.01.36-.22.68-.58.79-.34.11-1.12.12-2.99.12,2.86.75,3.21.94,3.24,1.59.02.36-.2.68-.56.81-.38.14-1.18.14-2.92.09,2.45.67,3.05.96,2.87,1.79-.17.76-.86.83-3.54.77,2.74.71,3.07.85,3.2,1.42l.1.46-.37.34c-.34.29-.77.32-3.68.32,3.06.77,3.54.91,3.62,1.6.04.34-.14.66-.45.81Z"/></g><g><rect class="cls-8" x="51.73" y="400.96" width="5.48" height="21.19" transform="translate(-5.19 .72) rotate(-.72)"/><path d="m59.15,422.24l-.91-1.24c-.21.15-.32.42-.28.68.04.3.26.49.38.54-.34-.12-2.14-.27-3.46-.39-4.15-.35-4.66-.45-4.95-1-.13-.23-.13-.52-.01-.75.25-.51.74-.68,4.06-1.22-3.59-.33-4.01-.46-4.24-1.05-.09-.23-.07-.49.06-.71.29-.49.79-.62,4.48-1.12,0,0,.02,0,.02,0,0,0-.02,0-.03,0-3.55-.35-4.08-.44-4.36-1-.12-.24-.11-.52.01-.75.25-.47.67-.62,3.64-1.01-3-.28-3.3-.35-3.58-.61l-.36-.32.13-.5c.17-.56.41-.69,3.8-1.24-2.16-.19-3.28-.34-3.74-.57-.43-.22-.52-.63-.47-.9.13-.73.66-.89,4.53-1.41-1.1-.1-2.29-.2-3.43-.28h-.1s-.09-.04-.09-.04c-.73-.24-.74-.78-.73-.95.06-.74.54-.98,4.16-1.56-2.3-.2-3.38-.32-3.8-.48-.44-.17-.6-.56-.56-.88.09-.67.13-1.01,9.17-2.01l.17,1.53c-1.18.13-2.4.28-3.54.43,3.98.35,4.42.44,4.48,1.25.01.21-.04.73-.82.91-.56.13-1.64.29-2.9.48-.29.04-.62.09-.96.14,4.33.42,4.38.77,4.46,1.29.05.3-.08.72-.57.91-.51.2-1.84.38-3.96.67-.05,0-.11.01-.17.02.12.01.24.02.35.03,3.9.33,4.22.35,4.36,1.08.07.36-.11.71-.45.88-.37.18-1.32.35-3.71.74,3.65.34,4.09.45,4.24,1.14.08.36-.09.71-.43.89-.41.23-1.41.38-3.68.67,3.19.32,3.98.48,3.93,1.41-.05.83-.73.99-4.21,1.47,3.53.32,4,.39,4.24.98.11.28.06.6-.14.83-.31.36-.81.48-4.14,1.01-.09.01-.19.03-.28.05.08,0,.16.01.23.02,3.83.32,4.26.38,4.45,1.06.09.33-.03.67-.32.88Zm-8.12-2.41,7.18-1.75h0,0Z"/></g><g><rect class="cls-8" x="170.4" y="399.06" width="5.48" height="20.54" transform="translate(10.56 -4.31) rotate(1.47)"/><path d="m177.4,419.87l-.84-1.29c-.22.14-.34.41-.31.68.03.31.24.51.37.56-.33-.13-2.13-.35-3.45-.51-4.13-.5-4.63-.62-4.91-1.16-.12-.24-.12-.52.01-.76.26-.49.75-.64,3.92-1.02-3.39-.44-3.8-.58-4-1.16-.08-.24-.05-.5.08-.71.3-.48.76-.58,4.34-.91-3.37-.45-3.88-.56-4.13-1.11-.11-.24-.1-.52.03-.75.26-.45.67-.58,3.46-.83-2.78-.36-3.06-.44-3.33-.7l-.36-.34.14-.5c.18-.55.43-.66,3.66-1.05-2.02-.25-3.08-.43-3.51-.67-.42-.24-.51-.64-.45-.92.15-.71.67-.85,4.37-1.2-1.03-.13-2.14-.26-3.2-.37h-.09s-.09-.04-.09-.04c-.72-.26-.72-.81-.7-.97.09-.72.56-.94,4.02-1.35-2.15-.27-3.18-.42-3.58-.59-.44-.18-.58-.58-.53-.9.11-.69.16-1,9.24-1.62l.11,1.53c-1.1.08-2.25.16-3.33.26.77.1,1.52.19,2.12.29,1.29.2,2.06.31,2.08,1.09,0,.21-.07.73-.86.87-.56.1-1.65.22-2.91.35-.24.03-.49.05-.76.08,4.12.56,4.15.88,4.21,1.42.03.3-.11.72-.61.89-.51.17-1.82.3-3.92.49.04,0,.08.01.13.02,3.89.46,4.21.5,4.32,1.24.05.36-.14.71-.49.86-.36.16-1.28.28-3.54.55,3.52.45,3.89.58,4,1.27.06.36-.12.7-.47.87-.4.2-1.35.31-3.49.49,3,.41,3.75.61,3.66,1.51-.08.8-.67.94-4.05,1.26,3.38.42,3.78.51,3.99,1.11.1.29.03.6-.18.83-.32.34-.79.43-4.17.82-.03,0-.05,0-.08,0,0,0,.02,0,.03,0,3.76.45,4.24.51,4.41,1.22.08.33-.06.67-.36.87Zm-7.81-8.35"/></g><g><rect class="cls-8" x="184.52" y="398.36" width="5.48" height="20.54" transform="translate(-40.79 21.28) rotate(-5.87)"/><path d="m192.05,418.59c-.35-.09-2.16-.07-3.48-.06-4.16.03-4.67-.02-5.02-.53-.15-.22-.18-.5-.09-.75.2-.52.66-.73,3.76-1.51h-.08c-3.34,0-3.76-.1-4.04-.64-.11-.23-.12-.49,0-.72.24-.51.68-.67,4.19-1.46-3.4-.02-3.92-.06-4.24-.57-.14-.22-.17-.5-.06-.75.2-.48.59-.66,3.32-1.27h-.02c-2.79,0-3.08-.05-3.38-.27l-.39-.29.08-.51c.11-.57.34-.71,3.49-1.51-2.03,0-3.11-.03-3.57-.22-.45-.18-.58-.57-.56-.85.06-.72.56-.93,4.18-1.74-1.04,0-2.15.02-3.22.04h-.09s-.09-.02-.09-.02c-.75-.17-.81-.71-.82-.87,0-.72.43-1.01,3.82-1.85-2.16,0-3.2,0-3.63-.12-.46-.12-.65-.5-.64-.82.02-.69.03-1.01,8.96-2.79l.3,1.51c-1.09.22-2.21.45-3.27.68.78,0,1.53,0,2.14.01,1.3.03,2.09.05,2.21.81.03.21.03.73-.74.98-.55.17-1.61.43-2.84.72-.23.06-.48.11-.74.18,4.15.03,4.23.35,4.36.87.07.3-.01.72-.49.96-.48.24-1.77.53-3.82.99.04,0,.08,0,.12,0,3.92-.04,4.24-.04,4.44.67.1.35-.05.72-.38.92-.34.2-1.23.44-3.44,1h.05c3.5,0,3.88.08,4.08.74.11.35-.03.71-.35.93-.37.25-1.3.48-3.39.93,3.03.03,3.79.13,3.82,1.03.03.81-.55,1.02-3.85,1.77,3.4-.01,3.81.03,4.09.59.14.27.11.6-.07.84-.28.38-.73.53-4.03,1.35-.03,0-.05.01-.08.02h.03c3.78-.03,4.27-.04,4.53.65.12.32.02.68-.25.91l-1-1.17c-.2.17-.29.45-.23.71.07.3.31.47.44.51Zm-.5-4.03h0Zm-7.94-5.84"/></g><polygon class="cls-3" points="168.18 403.53 171.44 401.28 176.38 401.41 178.5 403.79 178.62 399 175.77 396.89 170.83 396.76 168.3 399.17 168.18 403.53"/><polygon class="cls-3" points="181.86 403.15 180.95 398.91 183.63 396.36 189.31 395.78 191.6 397.29 192.21 401.82 189.77 400.66 184.82 400.97 181.86 403.15"/><polygon class="cls-3" points="38.07 398.73 36.94 403.06 42.48 402.48 45.64 404.16 45.75 399.66 42.6 397.98 38.07 398.73"/><polygon class="cls-3" points="49.36 404.98 52.61 402.74 57.55 402.87 59.67 405.25 59.79 400.45 56.94 398.34 52 398.22 49.47 400.62 49.36 404.98"/><polygon class="cls-12" points="57.22 445.45 174.52 445.62 174.36 451.55 57.08 451.11 57.22 445.45"/><g><circle class="cls-7" cx="35.21" cy="447.98" r="31.17"/><path d="m35.22,483.18c-.31,0-.61,0-.92-.01-9.4-.24-18.14-4.13-24.62-10.95C3.2,465.41-.23,456.48.01,447.08c.24-9.4,4.13-18.14,10.95-24.62s15.75-9.92,25.15-9.67c9.4.24,18.14,4.13,24.62,10.95,6.48,6.82,9.91,15.75,9.67,25.15-.49,19.1-16.18,34.3-35.18,34.3Zm-.03-62.34c-6.98,0-13.59,2.63-18.67,7.46-5.25,4.99-8.25,11.73-8.44,18.97-.19,7.24,2.46,14.13,7.45,19.38,4.99,5.25,11.73,8.25,18.97,8.44,14.95.37,27.43-11.47,27.82-26.43l4.04.1-4.04-.1c.19-7.24-2.46-14.13-7.45-19.38-4.99-5.25-11.73-8.25-18.97-8.44-.24,0-.48,0-.71,0Z"/></g><g><circle class="cls-7" cx="183.47" cy="448.37" r="31.17"/><path d="m183.49,483.57c-.31,0-.62,0-.93-.01-9.4-.24-18.14-4.13-24.62-10.95-6.48-6.82-9.91-15.75-9.67-25.15.5-19.41,16.7-34.78,36.1-34.29,9.4.24,18.14,4.13,24.62,10.95,6.48,6.82,9.91,15.75,9.67,25.15-.24,9.4-4.13,18.14-10.95,24.62-6.59,6.26-15.16,9.68-24.22,9.68Zm-.03-62.34c-14.64,0-26.74,11.72-27.11,26.44-.19,7.24,2.46,14.13,7.45,19.38,4.99,5.25,11.73,8.25,18.97,8.44,7.25.18,14.13-2.46,19.38-7.45,5.25-4.99,8.25-11.73,8.44-18.97h0c.19-7.24-2.46-14.13-7.45-19.38-4.99-5.25-11.73-8.25-18.97-8.44-.24,0-.47,0-.71,0Z"/></g><polygon class="cls-13" points="48.37 382.43 74.63 327.72 161.56 313.38 161.03 333.86 81.35 337.92 55.35 382.61 48.37 382.43"/><path class="cls-10" d="m41.32,385.3c2.23,0,144.7-1.05,144.7-1.05.54,0,.98-.44,1-.98l.08-2.93c.02-.79-.47-1.5-1.22-1.76l-.31-.11c-.69-.24-1.14-.91-1.09-1.64l.1-1.62c.04-.58-.42-1.07-.99-1.09l-5.04-.13-7.41-68.22-13.61,3.58-4.39,69.22s-108.14,1.46-111.69,2.37-2.34,4.36-.11,4.36Z"/><path class="cls-6" d="m88.39,445.66l-10.15-.26c-1.64-.04-2.98-1.31-3.11-2.94-.5-6.11-.07-12.43,1.4-18.97.33-1.48,1.68-2.51,3.2-2.47l10.08.26c1.63.04,2.96,1.3,3.11,2.93.42,4.8-.85,13.39-1.25,18.5-.13,1.7-1.57,3-3.27,2.95Z"/><path class="cls-18" d="m93.53,426.26l6.65-.13c1.3-.03,2.38,1.02,2.38,2.33l.03,14.83c0,1.32-1.09,2.38-2.41,2.34l-6.66-.22c-1.15-.04-2.1-.9-2.24-2.04-.46-3.62-1.2-11.32.06-15.49.29-.96,1.18-1.61,2.18-1.63Z"/><path class="cls-16" d="m75.1,425.63l-2.27-.06c-.56-.01-1.04.39-1.12.94l-1.07,7.63c0,.06-.01.12-.01.18l.24,10.08c.01.6.5,1.07,1.1,1.07h3.11c.65,0,1.15-.55,1.09-1.19l-.82-8.88c0-.07,0-.14,0-.21l.81-8.37c.06-.63-.43-1.19-1.06-1.2Z"/><rect class="cls-9" x="99.8" y="377.42" width="52.31" height="1.45" transform="translate(-4.77 1.62) rotate(-.72)"/><rect class="cls-14" x="101.41" y="376.32" width="6.98" height="1.51" rx=".75" ry=".75" transform="translate(9.71 -2.57) rotate(1.47)"/><rect class="cls-14" x="112.02" y="376.28" width="5.45" height="1.51" rx=".75" ry=".75" transform="translate(-4.75 1.48) rotate(-.72)"/><rect class="cls-14" x="123.99" y="376.12" width="4.7" height="1.51" rx=".75" ry=".75" transform="translate(9.71 -3.12) rotate(1.47)"/></g><g><path class="cls-12" d="m262.36,290.79c-2.16,0-4.16-1.41-4.8-3.59-14.29-48.77-65.61-76.82-114.38-62.53-2.65.78-5.43-.74-6.2-3.39-.78-2.65.74-5.43,3.39-6.2,54.06-15.85,110.94,15.25,126.79,69.31.78,2.65-.74,5.43-3.39,6.2-.47.14-.94.2-1.41.2Z"/><path class="cls-12" d="m227.1,301.13c-2.16,0-4.16-1.41-4.8-3.59-4.23-14.42-13.81-26.33-27-33.54-13.18-7.21-28.39-8.85-42.81-4.62-2.65.78-5.43-.74-6.2-3.39-.78-2.65.74-5.43,3.39-6.2,16.98-4.98,34.89-3.04,50.42,5.44,15.53,8.49,26.82,22.52,31.8,39.5.78,2.65-.74,5.43-3.39,6.2-.47.14-.94.2-1.41.2Z"/><path class="cls-12" d="m199.09,309.33c-2.16,0-4.16-1.41-4.8-3.59-1.99-6.79-6.51-12.41-12.72-15.8-6.21-3.4-13.38-4.17-20.17-2.18-2.65.78-5.43-.74-6.2-3.39-.78-2.65.74-5.43,3.39-6.2,9.36-2.74,19.22-1.68,27.78,3,8.56,4.68,14.78,12.41,17.52,21.77.78,2.65-.74,5.43-3.39,6.2-.47.14-.94.2-1.41.2Z"/></g><g><g><path class="cls-12" d="m684.65,375.53h-179.77c-9.39,0-17.03-7.64-17.03-17.03v-17.26c0-9.39,7.64-17.03,17.03-17.03h179.77c9.39,0,17.03,7.64,17.03,17.03v17.26c0,9.39-7.64,17.03-17.03,17.03Zm-179.77-44.19c-5.46,0-9.9,4.44-9.9,9.9v17.26c0,5.46,4.44,9.9,9.9,9.9h179.77c5.46,0,9.9-4.44,9.9-9.9v-17.26c0-5.46-4.44-9.9-9.9-9.9h-179.77Z"/><circle class="cls-12" cx="518.14" cy="350.23" r="8.91"/><path class="cls-12" d="m659.82,353.08h-110.39c-1.47,0-2.65-1.28-2.65-2.85s1.19-2.85,2.65-2.85h110.39c1.47,0,2.65,1.28,2.65,2.85s-1.19,2.85-2.65,2.85Z"/></g><g><path class="cls-12" d="m684.65,429.4h-179.77c-9.39,0-17.03-7.64-17.03-17.03v-17.26c0-9.39,7.64-17.03,17.03-17.03h179.77c9.39,0,17.03,7.64,17.03,17.03v17.26c0,9.39-7.64,17.03-17.03,17.03Zm-179.77-44.19c-5.46,0-9.9,4.44-9.9,9.9v17.26c0,5.46,4.44,9.9,9.9,9.9h179.77c5.46,0,9.9-4.44,9.9-9.9v-17.26c0-5.46-4.44-9.9-9.9-9.9h-179.77Z"/><circle class="cls-12" cx="518.14" cy="404.1" r="8.91"/><path class="cls-12" d="m659.82,406.95h-110.39c-1.47,0-2.65-1.28-2.65-2.85s1.19-2.85,2.65-2.85h110.39c1.47,0,2.65,1.28,2.65,2.85s-1.19,2.85-2.65,2.85Z"/></g><g><path class="cls-12" d="m684.65,483.57h-179.77c-9.39,0-17.03-7.64-17.03-17.03v-17.26c0-9.39,7.64-17.03,17.03-17.03h179.77c9.39,0,17.03,7.64,17.03,17.03v17.26c0,9.39-7.64,17.03-17.03,17.03Zm-179.77-44.19c-5.46,0-9.9,4.44-9.9,9.9v17.26c0,5.46,4.44,9.9,9.9,9.9h179.77c5.46,0,9.9-4.44,9.9-9.9v-17.26c0-5.46-4.44-9.9-9.9-9.9h-179.77Z"/><circle class="cls-12" cx="518.14" cy="458.27" r="8.91"/><path class="cls-12" d="m659.82,461.12h-110.39c-1.47,0-2.65-1.28-2.65-2.85s1.19-2.85,2.65-2.85h110.39c1.47,0,2.65,1.28,2.65,2.85s-1.19,2.85-2.65,2.85Z"/></g></g><g><g><path class="cls-5" d="m502.46,61.15c-.22-29.94-28.11-54.15-62.49-54.15-16.79,0-32.02,5.79-43.25,15.18C373.13,8.46,340.95,0,305.47,0c-72.35,0-131,35.15-131,78.5,0,37.9,44.82,69.52,104.43,76.88-1.58,4.04-2.43,8.26-2.43,12.62,0,28.72,36.49,52,81.5,52s81.5-23.28,81.5-52c0-.76-.04-1.51-.09-2.26,7.65,1.46,15.72,2.26,24.09,2.26,47.5,0,86-25.3,86-56.5,0-21.98-19.12-41.01-47.01-50.35Z"/><path class="cls-12" d="m540.7,305.87l-1.48-63.6-14.78,9-44.02-72.29c-5.55.66-11.21,1.02-16.94,1.02-4.49,0-8.97-.21-13.41-.63-.31,1.25-.7,2.48-1.11,3.71l50.71,83.28-14.79,9,55.82,30.51Z"/></g><text class="cls-11" transform="translate(225.22 39.06)"><tspan x="0" y="0">01100011 01100101 01101100 </tspan><tspan x="-4.4" y="19.2">01101001 01100010 01100001 </tspan><tspan x="-1.02" y="38.4">01110100 01100001 01101001 </tspan><tspan x="-30.13" y="57.6">01110010 01100101 00111010 00100000 </tspan><tspan x="22.5" y="76.8">00110000 00110110 00110010 </tspan><tspan x="31.05" y="96">00111001 00110011 00110110 </tspan><tspan x="90.44" y="115.2">00110110 00110000 </tspan><tspan x="95.26" y="134.4">00110001 </tspan><tspan x="95.26" y="153.6">00110010 </tspan></text></g><g><rect class="cls-2" x="634.5" y="269.94" width="131" height="131" rx="22.64" ry="22.64"/><rect class="cls-1" x="665.57" y="300.67" width="69.1" height="70.05"/><g><path d="m665.57,314.61h69.1m0,22.19h-69.1m0,22.19h69.1"/><path class="cls-2" d="m734.67,364.53h-69.1v-11.1h69.1v11.1Zm0-22.19h-69.1v-11.1h69.1v11.1Zm0-22.19h-69.1v-11.1h69.1v11.1Z"/></g><rect class="cls-4" x="665.67" y="300.53" width="41" height="41.82"/><g><g id="s18"><g id="s9"><g id="s5"><g id="s4"><g id="s"><path class="cls-2" d="m671.1,302.48l2.12,6.52-5.55-4.03h6.86l-5.55,4.03,2.12-6.52Z"/></g><g id="s-2"><path class="cls-2" d="m671.1,315.09l2.12,6.52-5.55-4.03h6.86l-5.55,4.03,2.12-6.52Z"/></g><g id="s-3"><path class="cls-2" d="m671.1,327.71l2.12,6.52-5.55-4.03h6.86l-5.55,4.03,2.12-6.52Z"/></g></g></g><g id="s4-2"><g id="s-4"><path class="cls-2" d="m678.52,308.79l2.12,6.52-5.55-4.03h6.86l-5.55,4.03,2.12-6.52Z"/></g><g id="s-5"><path class="cls-2" d="m678.52,321.4l2.12,6.52-5.55-4.03h6.86l-5.55,4.03,2.12-6.52Z"/></g><g id="s-6"><path class="cls-2" d="m678.52,334.01l2.12,6.52-5.55-4.03h6.86l-5.55,4.03,2.12-6.52Z"/></g></g></g><g id="s9-2"><g id="s5-2"><g id="s4-3"><g id="s-7"><path class="cls-2" d="m685.94,302.48l2.12,6.52-5.55-4.03h6.86l-5.55,4.03,2.12-6.52Z"/></g><g id="s-8"><path class="cls-2" d="m685.94,315.09l2.12,6.52-5.55-4.03h6.86l-5.55,4.03,2.12-6.52Z"/></g><g id="s-9"><path class="cls-2" d="m685.94,327.71l2.12,6.52-5.55-4.03h6.86l-5.55,4.03,2.12-6.52Z"/></g></g></g><g id="s4-4"><g id="s-10"><path class="cls-2" d="m693.35,308.79l2.12,6.52-5.55-4.03h6.86l-5.55,4.03,2.12-6.52Z"/></g><g id="s-11"><path class="cls-2" d="m693.35,321.4l2.12,6.52-5.55-4.03h6.86l-5.55,4.03,2.12-6.52Z"/></g><g id="s-12"><path class="cls-2" d="m693.35,334.01l2.12,6.52-5.55-4.03h6.86l-5.55,4.03,2.12-6.52Z"/></g></g></g></g><g id="s18-2"><g id="s9-3"><g id="s5-3"><g id="s4-5"><g id="s-13"><path class="cls-2" d="m700.77,302.48l2.12,6.52-5.55-4.03h6.86l-5.55,4.03,2.12-6.52Z"/></g><g id="s-14"><path class="cls-2" d="m700.77,315.09l2.12,6.52-5.55-4.03h6.86l-5.55,4.03,2.12-6.52Z"/></g><g id="s-15"><path class="cls-2" d="m700.77,327.71l2.12,6.52-5.55-4.03h6.86l-5.55,4.03,2.12-6.52Z"/></g></g></g></g></g></g><path d="m681.44,391.13v-12.38h-15.47c-2.48,0-4.64-.93-6.5-2.78s-2.78-4.02-2.78-6.5v-15.47h-12.38v-9.28h12.38v-19.18h-12.38v-9.28h12.38v-15.47c0-2.48.93-4.64,2.78-6.5s4.02-2.78,6.5-2.78h15.47v-11.76h9.28v11.76h19.18v-11.76h9.28v11.76h15.47c2.48,0,4.64.93,6.5,2.78s2.78,4.02,2.78,6.5v15.47h11.76v9.28h-11.76v19.18h11.76v9.28h-11.76v15.47c0,2.48-.93,4.64-2.78,6.5s-4.02,2.78-6.5,2.78h-15.47v12.38h-9.28v-12.38h-19.18v12.38h-9.28Zm53.21-21.66v-68.68h-68.68v68.68h68.68Z"/></g><g><path d="m681.66,267.89c-1.27,1.52-3.05,2.69-5.37,3.53s-4.88,1.25-7.69,1.25c-2.95,0-5.54-.64-7.77-1.93s-3.95-3.16-5.16-5.61-1.83-5.34-1.86-8.65v-2.32c0-3.41.57-6.36,1.72-8.85s2.8-4.4,4.97-5.72,4.7-1.98,7.61-1.98c4.05,0,7.21.96,9.49,2.89s3.63,4.74,4.05,8.43h-6.84c-.31-1.95-1-3.38-2.07-4.29s-2.54-1.36-4.42-1.36c-2.39,0-4.21.9-5.46,2.7s-1.88,4.47-1.9,8.02v2.18c0,3.58.68,6.28,2.04,8.11s3.35,2.74,5.98,2.74,4.52-.56,5.65-1.69v-5.88h-6.4v-5.18h13.43v13.62Z"/><path d="m694.39,260.18v12.02h-7.03v-34.12h13.31c2.56,0,4.82.47,6.76,1.41s3.44,2.27,4.49,4,1.57,3.69,1.57,5.89c0,3.34-1.14,5.98-3.43,7.91s-5.46,2.89-9.5,2.89h-6.16Zm0-5.7h6.28c1.86,0,3.28-.44,4.25-1.31s1.46-2.12,1.46-3.75-.49-3.02-1.48-4.05-2.34-1.56-4.08-1.59h-6.45v10.71Z"/><path d="m744.15,238.08v22.48c0,3.73-1.17,6.69-3.5,8.86s-5.53,3.26-9.57,3.26-7.15-1.05-9.49-3.16-3.54-5.01-3.59-8.7v-22.73h7.03v22.52c0,2.23.54,3.86,1.61,4.89s2.55,1.54,4.44,1.54c3.95,0,5.96-2.08,6.02-6.23v-22.71h7.05Z"/></g></svg>